<svg xmlns="http://www.w3.org/2000/svg" xmlns:xlink="http://www.w3.org/1999/xlink" width="100.0" height="100.0" viewBox="-122.42994792 37.73018008 0.028295839999998407 0.03698784000000188" preserveAspectRatio="xMinYMin meet"><g transform="matrix(1,0,0,-1,0,75.49734799999999)"><path fill-rule="evenodd" fill="#66cc99" stroke="#555555" stroke-width="0.0007397568000000376" opacity="0.6" d="M -122.405115,37.764635 L -122.405212,37.763469 L -122.405832,37.762199 L -122.405859,37.761815 L -122.40604,37.761865 L -122.406365,37.761199 L -122.40645,37.760114 L -122.406167,37.759315 L -122.406015,37.759409 L -122.405604,37.758851 L -122.40405,37.757619 L -122.403428,37.756871 L -122.403585,37.756818 L -122.403328,37.756082 L -122.40315,37.754488 L -122.403524,37.754463 L -122.403437,37.753199 L -122.403364,37.752366 L -122.403022,37.752336 L -122.403052,37.752048 L -122.405091,37.745281 L -122.405614,37.7442 L -122.405493,37.744084 L -122.404865,37.744385 L -122.404524,37.744285 L -122.406652,37.741241 L -122.406936,37.740554 L -122.407045,37.739587 L -122.408136,37.73964 L -122.408009,37.737734 L -122.408218,37.73765 L -122.408284,37.736846 L -122.408613,37.736074 L -122.409287,37.735258 L -122.410052,37.734675 L -122.411978,37.733732 L -122.412695,37.733197 L -122.414554,37.732371 L -122.416255,37.732034 L -122.419881,37.732016 L -122.423718,37.73155 L -122.425944,37.731698 L -122.425256,37.732125 L -122.422274,37.732383 L -122.421889,37.732533 L -122.421787,37.732774 L -122.422472,37.733967 L -122.422901,37.734388 L -122.422243,37.734846 L -122.422133,37.735162 L -122.426983,37.735455 L -122.427849,37.734718 L -122.428578,37.735082 L -122.42801,37.735441 L -122.428454,37.735882 L -122.42551,37.737774 L -122.42452,37.739868 L -122.42427,37.739867 L -122.424394,37.740405 L -122.424168,37.740805 L -122.426453,37.764634 L -122.421885,37.764908 L -122.42173,37.763304 L -122.421031,37.76335 L -122.421248,37.764947 L -122.407553,37.765798 L -122.407431,37.764497 L -122.405115,37.764635 z" /></g></svg>