<?xml version="1.0" encoding="utf-8" standalone="no"?>
<!DOCTYPE svg PUBLIC "-//W3C//DTD SVG 1.1//EN"
  "http://www.w3.org/Graphics/SVG/1.1/DTD/svg11.dtd">
<!-- Created with matplotlib (https://matplotlib.org/) -->
<svg height="431.468364pt" version="1.1" viewBox="0 0 713.265625 431.468364" width="713.265625pt" xmlns="http://www.w3.org/2000/svg" xmlns:xlink="http://www.w3.org/1999/xlink">
 <defs>
  <style type="text/css">
*{stroke-linecap:butt;stroke-linejoin:round;}
  </style>
 </defs>
 <g id="figure_1">
  <g id="patch_1">
   <path d="M 0 431.468364 
L 713.265625 431.468364 
L 713.265625 0 
L 0 0 
z
" style="fill:#ffffff;"/>
  </g>
  <g id="axes_1">
   <g id="patch_2">
    <path d="M 36.465625 407.590239 
L 706.065625 407.590239 
L 706.065625 7.2 
L 36.465625 7.2 
z
" style="fill:#ffffff;"/>
   </g>
   <g id="PatchCollection_1">
    <path clip-path="url(#pde5b93afb5)" d="M 146.683569 99.579622 
L 144.663257 98.578025 
L 140.451003 94.193221 
L 139.226956 93.864857 
L 137.457445 91.138301 
L 137.985945 89.802762 
L 137.690976 88.244697 
L 141.363574 90.270204 
L 142.170384 91.856085 
L 141.83094 93.525413 
L 145.793006 94.042908 
L 145.687244 97.108985 
L 146.989389 98.756076 
L 146.683569 99.579622 
" style="fill:#8c564b;stroke:#ffffff;"/>
    <path clip-path="url(#pde5b93afb5)" d="M 105.822971 119.472786 
L 103.330403 117.987011 
L 102.300609 118.15956 
L 104.415218 115.393955 
L 103.797617 113.641179 
L 104.593423 112.544978 
L 105.834434 113.780258 
L 106.490855 116.384471 
L 105.822971 119.472786 
" style="fill:#8c564b;stroke:#ffffff;"/>
    <path clip-path="url(#pde5b93afb5)" d="M 109.059382 40.890913 
L 108.711226 40.695936 
L 109.128462 41.686452 
L 110.358317 41.914633 
L 111.943968 43.734197 
L 112.945642 43.912248 
L 113.836052 46.978325 
L 112.40033 49.326541 
L 111.799387 56.771844 
L 113.062407 58.669353 
L 112.828876 59.949184 
L 115.321597 61.373672 
L 115.549931 66.860332 
L 116.941025 70.1322 
L 116.234321 75.92491 
L 118.526829 79.881244 
L 121.169786 81.522757 
L 121.898956 83.948918 
L 123.351184 84.727989 
L 124.174805 84.215995 
L 125.32106 84.739069 
L 128.325927 87.999857 
L 134.891976 92.779813 
L 136.444463 94.693981 
L 136.366976 95.756788 
L 138.497939 97.726664 
L 138.536758 100.809399 
L 139.371537 102.111468 
L 140.406681 102.08923 
L 140.195006 101.154422 
L 141.21884 100.636926 
L 142.504326 101.766522 
L 142.604585 104.025712 
L 144.841615 103.335667 
L 145.592793 103.652874 
L 147.239731 110.358078 
L 149.120505 111.203938 
L 152.23098 111.287385 
L 152.03627 114.44799 
L 153.733643 116.100659 
L 153.916891 119.372603 
L 155.052446 119.923493 
L 155.043429 119.973164 
L 126.629165 119.957154 
L 126.873699 119.489444 
L 127.207488 116.395552 
L 125.788426 114.726224 
L 127.496956 111.977353 
L 128.175997 109.406535 
L 126.584232 108.059915 
L 126.205815 106.513007 
L 124.157994 106.273746 
L 124.208276 105.672803 
L 121.587481 103.341246 
L 121.331331 102.222807 
L 119.617605 101.165502 
L 118.610277 101.354711 
L 118.281989 100.430983 
L 117.158049 99.496174 
L 116.468004 97.643216 
L 115.227146 97.231405 
L 114.537101 95.940418 
L 110.413795 92.37358 
L 105.661884 91.366787 
L 104.760164 90.136627 
L 100.013755 87.387757 
L 98.878505 87.348861 
L 97.943926 85.985506 
L 95.517688 84.544359 
L 95.506378 82.568905 
L 94.810984 81.300231 
L 93.225333 80.816129 
L 93.731213 77.750052 
L 92.863269 73.253909 
L 92.028796 72.202259 
L 90.02545 71.929603 
L 90.804597 70.978059 
L 89.775108 69.954149 
L 90.23147 70.994718 
L 89.118381 71.11156 
L 89.558236 72.430363 
L 88.656669 71.033691 
L 88.300566 63.922254 
L 85.240068 62.030323 
L 84.227238 60.717098 
L 82.841493 60.399891 
L 83.34233 58.073912 
L 82.636084 55.586617 
L 79.480676 51.357551 
L 77.499796 50.456137 
L 75.81358 48.747836 
L 76.614888 48.119001 
L 76.659668 46.672275 
L 74.928824 44.886029 
L 76.848723 45.075238 
L 77.305085 43.03865 
L 74.47827 41.502822 
L 73.676809 40.161781 
L 72.380472 39.916941 
L 71.161775 35.264984 
L 68.819137 33.829415 
L 66.905045 30.707783 
L 66.901989 29.115101 
L 87.259768 27.430871 
L 115.001716 25.399556 
L 113.252073 27.499265 
L 113.037648 29.733772 
L 110.685993 30.36276 
L 110.135026 32.454903 
L 108.586666 34.737401 
L 109.439938 37.11244 
L 109.059382 40.890913 
" style="fill:#8c564b;stroke:#ffffff;"/>
    <path clip-path="url(#pde5b93afb5)" d="M 185.417788 163.983285 
L 184.93361 163.354527 
L 185.71291 159.253459 
L 187.810708 158.541176 
L 187.554559 159.943427 
L 188.161309 160.605657 
L 186.697772 159.960163 
L 185.417788 163.983285 
" style="fill:#8c564b;stroke:#ffffff;"/>
    <path clip-path="url(#pde5b93afb5)" d="M 166.837926 174.433455 
L 165.457989 183.169745 
L 166.854737 185.77946 
L 166.665529 187.120501 
L 168.095443 188.183385 
L 168.468358 189.719136 
L 165.925507 186.825608 
L 166.44285 185.896378 
L 165.897692 184.388366 
L 163.421477 183.859714 
L 164.773446 181.767495 
L 166.837926 174.433455 
" style="fill:#8c564b;stroke:#ffffff;"/>
    <path clip-path="url(#pde5b93afb5)" d="M 195.634886 178.285022 
L 197.982415 179.385884 
L 198.917452 182.374016 
L 196.680576 181.444709 
L 195.378431 179.213335 
L 195.634886 178.285022 
" style="fill:#8c564b;stroke:#ffffff;"/>
    <path clip-path="url(#pde5b93afb5)" d="M 175.362694 193.519733 
L 169.180563 189.429821 
L 172.781177 189.257272 
L 172.99759 190.231129 
L 175.629848 192.250982 
L 175.362694 193.519733 
" style="fill:#8c564b;stroke:#ffffff;"/>
    <path clip-path="url(#pde5b93afb5)" d="M 213.818909 197.45383 
L 212.155312 196.34097 
L 211.270709 192.707268 
L 213.818909 197.45383 
" style="fill:#8c564b;stroke:#ffffff;"/>
    <path clip-path="url(#pde5b93afb5)" d="M 155.043429 119.973164 
L 154.440347 123.278884 
L 155.375079 123.835352 
L 156.026151 125.549232 
L 156.977695 125.721705 
L 158.040654 127.368795 
L 159.420592 127.435584 
L 162.614514 129.182857 
L 163.649352 133.155927 
L 165.44133 135.22033 
L 164.907022 135.337172 
L 165.073917 136.043876 
L 170.410265 137.958044 
L 170.566155 138.45888 
L 169.430905 138.931825 
L 168.896904 139.977973 
L 171.556672 143.216523 
L 171.1726 145.230873 
L 174.283381 148.736501 
L 174.917489 148.959103 
L 175.819056 147.968663 
L 173.398473 145.865211 
L 172.146458 142.55437 
L 172.564 141.981243 
L 178.312082 145.536923 
L 178.389875 148.714263 
L 180.688038 149.743676 
L 179.942514 151.663499 
L 181.506005 153.110224 
L 181.62277 155.285968 
L 183.114123 157.873445 
L 182.296156 160.867155 
L 183.036178 163.143081 
L 183.670897 163.309976 
L 183.542669 164.433992 
L 184.978391 165.72498 
L 186.235908 168.496088 
L 189.179488 169.536657 
L 189.157328 171.667849 
L 190.626214 173.876987 
L 191.327416 176.598041 
L 192.451356 178.295185 
L 194.621597 179.66962 
L 195.740036 181.889915 
L 196.191049 184.13237 
L 195.022328 186.591925 
L 194.871939 188.511672 
L 195.778856 192.473585 
L 197.303526 194.398909 
L 199.446105 195.656503 
L 203.485963 196.313077 
L 202.767949 196.891783 
L 201.588224 196.446654 
L 202.484289 197.776538 
L 204.18151 196.307575 
L 203.56941 193.397313 
L 205.299795 193.046712 
L 206.785646 195.100035 
L 209.512203 196.808336 
L 210.402613 199.217762 
L 211.175952 199.646232 
L 213.195805 199.034132 
L 213.696794 199.668545 
L 213.112358 201.771922 
L 215.633353 204.147954 
L 215.861228 206.907904 
L 220.029008 208.599546 
L 221.515012 211.03121 
L 220.897104 215.466143 
L 219.828796 217.013128 
L 216.27877 219.049716 
L 215.488619 220.340704 
L 213.324033 221.776349 
L 210.541692 222.855814 
L 209.078155 222.082399 
L 207.965218 220.396335 
L 206.134574 213.551975 
L 204.598899 211.81028 
L 203.235315 208.760939 
L 196.869631 205.472259 
L 188.712122 197.848905 
L 180.114911 193.397313 
L 181.978873 193.881414 
L 177.471802 190.887704 
L 176.425654 188.483856 
L 175.819056 188.200044 
L 175.401667 189.14043 
L 173.648968 188.828879 
L 174.211091 189.624532 
L 173.354304 189.808162 
L 172.981236 187.226262 
L 170.894443 185.139545 
L 169.475533 182.340622 
L 170.037656 184.922521 
L 168.829963 184.855809 
L 168.685382 183.008353 
L 168.473707 184.677681 
L 167.622575 185.356569 
L 168.095443 184.699995 
L 166.993816 182.507593 
L 167.939858 180.938371 
L 167.589104 179.5472 
L 166.531799 182.045729 
L 165.9197 182.184808 
L 167.026981 178.98523 
L 166.949189 176.709304 
L 168.151074 174.611506 
L 168.095443 166.33708 
L 167.93405 165.686008 
L 167.744842 166.075581 
L 167.806281 168.679718 
L 167.244158 169.564473 
L 167.26097 164.567569 
L 164.94034 159.73756 
L 163.321218 158.157258 
L 162.664644 158.37986 
L 161.935626 154.924286 
L 160.900635 154.195345 
L 159.771193 154.646052 
L 158.663758 154.106319 
L 158.75821 153.5053 
L 156.076281 153.438512 
L 153.86722 151.774762 
L 154.072934 151.290661 
L 147.412128 147.111724 
L 147.885301 146.22139 
L 147.14528 146.566336 
L 144.891591 145.781763 
L 144.841615 144.396248 
L 146.916946 142.392977 
L 146.911444 140.823832 
L 145.904269 140.595651 
L 145.776194 142.504317 
L 144.646904 143.65615 
L 145.403585 143.561545 
L 144.607626 144.084619 
L 144.468547 145.153005 
L 140.551109 143.572702 
L 141.447021 143.522573 
L 140.696148 143.110838 
L 138.809414 145.091795 
L 137.513077 145.269846 
L 134.853003 143.272154 
L 132.744201 140.517782 
L 131.286319 139.98913 
L 129.422051 140.345233 
L 127.691666 138.063805 
L 126.044422 137.045473 
L 124.564379 136.683791 
L 123.818855 137.11784 
L 121.22557 136.299873 
L 120.763859 135.353907 
L 119.862292 135.147964 
L 119.160937 131.714703 
L 117.26381 130.234507 
L 114.692838 129.305277 
L 113.435321 127.541268 
L 112.166494 127.057167 
L 112.544911 126.817906 
L 111.977592 126.088964 
L 111.254076 126.567487 
L 110.402639 125.560312 
L 109.284353 125.532496 
L 108.221546 123.351251 
L 108.594155 122.716838 
L 109.445746 123.340094 
L 112.306032 123.24549 
L 117.158049 124.631082 
L 119.40593 124.586531 
L 122.494397 122.394129 
L 122.794868 124.347269 
L 123.863177 125.326629 
L 126.12787 126.11678 
L 128.481817 125.682732 
L 129.405545 126.244779 
L 130.0233 125.577047 
L 128.726657 124.564294 
L 126.222627 125.638257 
L 124.925831 124.586531 
L 124.697956 123.317857 
L 123.228917 122.661206 
L 123.74091 121.041931 
L 125.077748 119.963764 
L 126.300572 118.977527 
L 126.259001 119.956963 
L 126.233631 120.713644 
L 126.629165 119.957154 
L 155.043429 119.973164 
" style="fill:#8c564b;stroke:#ffffff;"/>
    <path clip-path="url(#pde5b93afb5)" d="M 277.26652 248.869211 
L 276.737104 246.293578 
L 277.977962 245.853952 
L 279.090898 246.354788 
L 279.986658 247.918355 
L 279.39137 249.916047 
L 277.26652 248.869211 
" style="fill:#2ca02c;stroke:#ffffff;"/>
    <path clip-path="url(#pde5b93afb5)" d="M 281.711847 251.78574 
L 279.46366 251.173641 
L 280.259313 249.9661 
L 282.769151 250.116412 
L 283.153223 250.806381 
L 281.711847 251.78574 
" style="fill:#2ca02c;stroke:#ffffff;"/>
    <path clip-path="url(#pde5b93afb5)" d="M 304.299778 266.338468 
L 303.274415 264.845625 
L 301.382179 265.123859 
L 298.833827 264.500602 
L 300.375156 263.805055 
L 303.35771 259.843143 
L 304.904847 258.897177 
L 305.472319 255.630812 
L 304.960326 253.226964 
L 306.117584 251.173641 
L 305.310774 249.77139 
L 304.137009 249.743574 
L 300.99826 248.018538 
L 299.774061 244.663146 
L 296.635922 240.406264 
L 296.913927 234.41892 
L 295.425784 230.779105 
L 295.823916 230.683966 
L 296.833537 230.422162 
L 300.635738 229.165943 
L 300.136888 226.511639 
L 298.215766 225.076147 
L 298.888847 223.395624 
L 300.842064 222.054468 
L 299.968618 220.707925 
L 300.469455 219.311253 
L 301.685401 218.777824 
L 303.480282 219.433673 
L 306.294871 219.33349 
L 311.449041 221.637193 
L 312.144282 224.475166 
L 309.778414 226.56173 
L 309.778414 229.177139 
L 314.598183 226.606205 
L 316.539326 227.652506 
L 317.502791 230.696193 
L 319.928723 231.942782 
L 322.861453 231.119084 
L 323.534533 233.766931 
L 323.170024 234.862101 
L 321.703583 238.631175 
L 327.897635 244.451739 
L 326.711644 248.213401 
L 325.621938 249.231619 
L 330.876367 252.682187 
L 330.545788 254.428773 
L 328.921163 255.959061 
L 325.211274 256.633325 
L 325.565848 260.63337 
L 324.263704 262.981548 
L 324.051417 266.042085 
L 320.413512 263.604767 
L 319.055278 261.87419 
L 317.252449 261.723916 
L 315.311306 259.93767 
L 314.347841 259.782009 
L 310.76404 261.685058 
L 308.071718 261.690484 
L 304.299778 266.338468 
" style="fill:#2ca02c;stroke:#ffffff;"/>
    <path clip-path="url(#pde5b93afb5)" d="M 379.354358 243.033249 
L 378.084309 244.713161 
L 378.979762 247.033676 
L 377.208876 249.509853 
L 378.32273 253.649932 
L 376.682058 255.324838 
L 373.042319 257.177796 
L 372.876036 258.145961 
L 368.34069 263.921859 
L 367.99605 264.728783 
L 370.271746 268.384646 
L 368.050153 270.922147 
L 367.657523 272.431764 
L 365.596252 273.353849 
L 360.950713 273.453993 
L 357.373025 275.635315 
L 354.364184 276.281764 
L 352.046458 276.942427 
L 348.825331 278.37853 
L 347.873788 279.747349 
L 348.074 280.442858 
L 349.025544 280.59871 
L 349.364071 282.234759 
L 351.227116 281.178447 
L 351.505579 281.600536 
L 353.659009 282.237357 
L 354.017557 282.234338 
L 354.983162 282.581692 
L 355.273699 283.859574 
L 353.210288 285.092752 
L 353.334542 286.101762 
L 354.550489 288.389035 
L 354.85096 290.770684 
L 357.633454 290.414505 
L 358.356664 292.106223 
L 356.325349 295.762124 
L 354.450383 295.149948 
L 350.427795 296.746909 
L 350.293607 298.321824 
L 347.901756 299.53479 
L 347.144617 301.159605 
L 344.089621 298.922614 
L 342.827671 300.770185 
L 340.1974 300.914804 
L 339.293999 298.800194 
L 339.949045 293.74208 
L 336.900009 290.63726 
L 333.322321 292.395499 
L 328.414366 289.874848 
L 326.833911 290.965394 
L 327.184359 292.584784 
L 324.65236 293.864653 
L 322.022089 294.827201 
L 321.168818 294.554583 
L 320.295372 295.645321 
L 318.955172 295.172185 
L 317.861492 297.383539 
L 316.495616 296.891681 
L 315.04889 295.650746 
L 313.552035 295.834376 
L 313.807879 294.476676 
L 312.038521 294.643571 
L 309.890441 293.347081 
L 308.343456 291.277099 
L 307.686882 288.939963 
L 304.33172 286.6418 
L 299.351169 279.702913 
L 298.483226 275.835527 
L 296.224035 272.780607 
L 296.179255 271.728957 
L 298.516543 270.410154 
L 302.689825 269.94829 
L 304.849063 268.72409 
L 304.97133 267.316261 
L 304.299778 266.338468 
L 308.071718 261.690484 
L 310.76404 261.685058 
L 314.347841 259.782009 
L 315.311306 259.93767 
L 317.252449 261.723916 
L 319.055278 261.87419 
L 320.413512 263.604767 
L 324.051417 266.042085 
L 324.263704 262.981548 
L 325.565848 260.63337 
L 325.211274 256.633325 
L 328.921163 255.959061 
L 330.545788 254.428773 
L 330.876367 252.682187 
L 325.621938 249.231619 
L 326.711644 248.213401 
L 327.897635 244.451739 
L 321.703583 238.631175 
L 323.170024 234.862101 
L 326.883888 233.305984 
L 330.768161 232.788565 
L 331.341135 229.928355 
L 329.183579 228.503867 
L 329.888755 226.968001 
L 329.6323 224.842349 
L 333.738946 225.677128 
L 334.36801 227.407513 
L 332.360843 228.598395 
L 333.105908 230.356825 
L 332.098274 230.924374 
L 332.404859 236.477707 
L 334.952906 228.615054 
L 336.605651 228.67634 
L 337.485057 229.650121 
L 335.764301 237.23691 
L 336.132783 237.902196 
L 337.018303 238.525376 
L 339.341989 237.811833 
L 342.35893 233.600877 
L 341.607598 231.436367 
L 342.342882 230.0285 
L 346.209121 232.777332 
L 345.770335 233.995914 
L 348.690991 234.430001 
L 347.244723 237.20107 
L 347.979854 238.353132 
L 346.383352 240.656606 
L 343.933425 240.511987 
L 341.90807 241.496963 
L 340.850459 243.20534 
L 338.831218 244.457356 
L 339.598444 245.531281 
L 339.504299 248.313546 
L 336.777895 250.951 
L 335.109255 249.84922 
L 335.726245 252.442391 
L 334.718611 255.152365 
L 334.468116 255.708642 
L 335.041091 256.12053 
L 336.861954 255.347076 
L 337.751447 256.426618 
L 338.931324 256.2261 
L 348.687017 259.103121 
L 348.090048 256.437622 
L 349.115716 254.050586 
L 350.562136 254.490098 
L 351.673849 253.610883 
L 353.138151 253.772313 
L 356.07088 252.542536 
L 357.032511 249.237235 
L 354.418287 247.818364 
L 354.985148 245.686904 
L 356.916357 244.891251 
L 359.959127 246.427117 
L 365.023278 247.06153 
L 368.168446 244.796685 
L 368.913664 243.132821 
L 370.532175 242.504177 
L 372.918065 239.925831 
L 373.837514 239.855527 
L 379.354358 243.033249 
" style="fill:#7f7f7f;stroke:#ffffff;"/>
    <path clip-path="url(#pde5b93afb5)" d="M 372.918065 239.925831 
L 370.532175 242.504177 
L 368.913664 243.132821 
L 368.168446 244.796685 
L 365.023278 247.06153 
L 359.959127 246.427117 
L 356.916357 244.891251 
L 354.985148 245.686904 
L 352.775629 243.700522 
L 352.915778 241.558288 
L 355.676263 238.492134 
L 357.11657 234.585853 
L 360.810565 233.406167 
L 363.310621 230.96881 
L 364.083808 231.018901 
L 364.356311 233.033367 
L 365.446016 232.705041 
L 366.716066 233.667589 
L 366.744035 234.446813 
L 369.352298 235.114506 
L 368.707339 237.401397 
L 371.11111 237.868916 
L 372.918065 239.925831 
" style="fill:#7f7f7f;stroke:#ffffff;"/>
    <path clip-path="url(#pde5b93afb5)" d="M 404.286608 276.129121 
L 402.918287 279.079656 
L 400.25806 282.07329 
L 396.295689 280.520803 
L 393.04644 281.678252 
L 391.904618 281.405597 
L 391.566091 279.491543 
L 390.179888 279.029603 
L 386.776277 278.495334 
L 384.372506 279.747349 
L 382.635702 279.519359 
L 381.672084 278.623332 
L 381.868476 276.647954 
L 380.642442 273.541567 
L 377.7117 273.854648 
L 376.369665 276.403153 
L 373.426849 275.980261 
L 372.062654 276.397536 
L 371.433589 275.99692 
L 370.826686 272.925341 
L 370.225743 272.868258 
L 369.95324 273.676558 
L 369.925272 272.151925 
L 367.657523 272.431764 
L 368.050153 270.922147 
L 370.271746 268.384646 
L 367.99605 264.728783 
L 368.34069 263.921859 
L 372.876036 258.145961 
L 373.042319 257.177796 
L 376.682058 255.324838 
L 378.32273 253.649932 
L 377.208876 249.509853 
L 378.979762 247.033676 
L 378.084309 244.713161 
L 379.354358 243.033249 
L 381.321636 243.466763 
L 383.402928 242.93811 
L 385.784691 244.818922 
L 390.498394 245.269629 
L 394.843308 248.797532 
L 397.719948 250.049547 
L 398.889891 249.866032 
L 401.237572 247.161675 
L 403.952055 247.194954 
L 406.03136 248.449568 
L 414.097474 251.796553 
L 414.358514 254.111681 
L 415.415819 255.408171 
L 413.440594 256.704852 
L 410.680414 256.159388 
L 409.711294 256.58247 
L 409.312551 258.390762 
L 408.287035 259.225503 
L 407.698013 262.152424 
L 402.527643 261.679442 
L 401.782578 261.262205 
L 400.564492 261.696101 
L 397.870183 266.381414 
L 400.019639 268.02285 
L 400.903019 272.741673 
L 402.127066 273.593034 
L 401.80046 274.399921 
L 404.286608 276.129121 
" style="fill:#7f7f7f;stroke:#ffffff;"/>
    <path clip-path="url(#pde5b93afb5)" d="M 407.441558 281.467112 
L 406.245633 278.578858 
L 404.286608 276.129121 
L 401.80046 274.399921 
L 402.127066 273.593034 
L 400.903019 272.741673 
L 400.019639 268.02285 
L 397.870183 266.381414 
L 400.564492 261.696101 
L 401.782578 261.262205 
L 402.527643 261.679442 
L 407.698013 262.152424 
L 408.287035 259.225503 
L 409.312551 258.390762 
L 409.711294 256.58247 
L 410.680414 256.159388 
L 413.440594 256.704852 
L 415.415819 255.408171 
L 414.358514 254.111681 
L 414.097474 251.796553 
L 415.048712 249.74365 
L 416.100209 249.081383 
L 418.32058 251.702217 
L 421.681397 250.956617 
L 422.582811 249.042525 
L 423.990717 248.897677 
L 424.819993 247.656895 
L 425.927122 247.295099 
L 428.175309 254.440006 
L 429.067247 254.818614 
L 429.240561 257.046588 
L 428.625863 256.554616 
L 425.554513 257.940055 
L 424.036873 257.214858 
L 423.573633 258.162581 
L 422.443732 258.229523 
L 423.022667 259.286598 
L 422.115445 261.890811 
L 420.028804 263.888617 
L 419.533469 265.813904 
L 420.119893 266.981975 
L 413.518233 269.95937 
L 413.325051 274.817195 
L 410.897438 275.362698 
L 410.658253 277.621735 
L 407.441558 281.467112 
" style="fill:#1f77b4;stroke:#ffffff;"/>
    <path clip-path="url(#pde5b93afb5)" d="M 436.756625 288.531285 
L 436.833654 288.32794 
L 438.319505 285.456535 
L 436.043503 283.453303 
L 432.485377 283.236355 
L 431.647389 284.165662 
L 430.77379 284.0821 
L 430.401181 282.885793 
L 431.080069 280.376146 
L 429.316061 279.385744 
L 425.854985 280.68785 
L 424.369133 283.826294 
L 422.28234 284.710935 
L 421.353262 282.568662 
L 419.52812 281.188649 
L 420.206703 278.584474 
L 418.732314 277.321226 
L 416.645367 277.449224 
L 413.325051 274.817195 
L 413.518233 269.95937 
L 420.119893 266.981975 
L 419.533469 265.813904 
L 420.028804 263.888617 
L 422.115445 261.890811 
L 423.022667 259.286598 
L 422.443732 258.229523 
L 423.573633 258.162581 
L 424.036873 257.214858 
L 425.554513 257.940055 
L 428.625863 256.554616 
L 429.240561 257.046588 
L 429.067247 254.818614 
L 431.074262 254.312008 
L 431.825593 255.864495 
L 433.717676 256.487713 
L 437.54586 255.886732 
L 437.829978 253.494079 
L 439.649312 252.203015 
L 440.406146 253.1379 
L 440.205781 255.347076 
L 441.741455 257.105506 
L 443.204993 257.144364 
L 443.978638 255.508315 
L 444.696346 255.925781 
L 444.49919 256.515529 
L 444.193522 257.593886 
L 445.709023 257.044181 
L 447.350459 258.69685 
L 446.899905 259.804246 
L 446.432539 259.642777 
L 445.55894 260.956079 
L 445.347418 263.582529 
L 442.615054 263.026023 
L 441.530239 264.394841 
L 439.732913 265.07373 
L 439.971945 265.952945 
L 441.463298 265.830525 
L 438.625478 270.176547 
L 440.055239 272.685965 
L 440.895673 273.030911 
L 441.90835 271.389475 
L 443.255122 271.511895 
L 448.057163 266.971391 
L 449.348303 267.355196 
L 449.376119 268.067554 
L 449.108813 270.070748 
L 447.999239 271.568558 
L 446.710543 273.721033 
L 445.19703 273.93798 
L 445.041597 274.678193 
L 445.0633 275.8745 
L 447.278321 276.241684 
L 448.046159 278.122534 
L 444.796605 283.308684 
L 447.100117 286.780879 
L 444.807609 285.957334 
L 443.655853 287.426487 
L 443.076918 288.45036 
L 440.105522 287.342964 
L 436.756625 288.531285 
" style="fill:#1f77b4;stroke:#ffffff;"/>
    <path clip-path="url(#pde5b93afb5)" d="M 340.1974 300.914804 
L 342.827671 300.770185 
L 344.089621 298.922614 
L 347.144617 301.159605 
L 347.901756 299.53479 
L 350.293607 298.321824 
L 350.427795 296.746909 
L 354.450383 295.149948 
L 356.325349 295.762124 
L 358.356664 292.106223 
L 357.633454 290.414505 
L 354.85096 290.770684 
L 354.550489 288.389035 
L 353.334542 286.101762 
L 353.210288 285.092752 
L 355.273699 283.859574 
L 354.983162 282.581692 
L 354.017557 282.234338 
L 353.659009 282.237357 
L 351.505579 281.600536 
L 351.227116 281.178447 
L 349.364071 282.234759 
L 349.025544 280.59871 
L 348.074 280.442858 
L 347.873788 279.747349 
L 348.825331 278.37853 
L 352.046458 276.942427 
L 354.364184 276.281764 
L 357.373025 275.635315 
L 360.950713 273.453993 
L 365.596252 273.353849 
L 367.657523 272.431764 
L 369.925272 272.151925 
L 369.95324 273.676558 
L 370.225743 272.868258 
L 370.826686 272.925341 
L 371.433589 275.99692 
L 372.062654 276.397536 
L 373.426849 275.980261 
L 376.369665 276.403153 
L 377.7117 273.854648 
L 380.642442 273.541567 
L 381.868476 276.647954 
L 381.672084 278.623332 
L 382.635702 279.519359 
L 384.372506 279.747349 
L 386.776277 278.495334 
L 390.179888 279.029603 
L 391.566091 279.491543 
L 391.904618 281.405597 
L 393.04644 281.678252 
L 396.295689 280.520803 
L 400.25806 282.07329 
L 402.918287 279.079656 
L 404.286608 276.129121 
L 406.245633 278.578858 
L 407.441558 281.467112 
L 408.75975 282.685466 
L 407.012859 283.687063 
L 406.155614 287.409676 
L 407.119079 291.928133 
L 403.947928 293.552948 
L 404.208357 294.994095 
L 399.20641 300.592095 
L 399.296429 301.449073 
L 398.154607 303.068271 
L 396.227525 304.543653 
L 395.316023 303.058872 
L 394.482773 304.442706 
L 395.466412 309.762434 
L 398.010485 312.232611 
L 397.391508 313.212391 
L 396.167461 312.527886 
L 394.014032 310.830781 
L 391.566091 310.724981 
L 391.684232 311.275871 
L 390.937027 311.43734 
L 389.646956 309.929328 
L 388.116478 310.252037 
L 383.947781 309.601003 
L 380.822481 310.690861 
L 379.656511 310.565958 
L 378.365676 309.774813 
L 377.44959 308.109191 
L 372.952605 308.359036 
L 372.28625 309.524968 
L 372.577857 314.48011 
L 371.83432 315.054154 
L 370.087429 316.239457 
L 366.910318 316.80158 
L 366.214159 321.855033 
L 366.05292 321.842959 
L 360.071307 319.82303 
L 354.912858 318.971669 
L 349.214905 316.484297 
L 340.79009 314.008083 
L 338.202612 310.257615 
L 335.809845 308.721788 
L 336.043681 307.842611 
L 334.871139 306.506843 
L 336.120862 304.748794 
L 337.162425 304.426048 
L 337.569116 302.461712 
L 338.236236 302.628759 
L 340.1974 300.914804 
" style="fill:#1f77b4;stroke:#ffffff;"/>
    <path clip-path="url(#pde5b93afb5)" d="M 437.386148 290.727623 
L 436.622132 292.12846 
L 437.206568 296.947236 
L 436.700077 300.323069 
L 434.863931 300.881371 
L 430.657942 298.474696 
L 431.152207 297.498126 
L 430.584735 294.126075 
L 429.366037 292.80177 
L 429.299249 291.154717 
L 428.225438 290.726209 
L 427.668817 289.424103 
L 425.437442 292.12846 
L 423.111616 293.091008 
L 424.227304 297.404744 
L 423.434401 298.444244 
L 423.840634 300.809043 
L 421.325294 302.617564 
L 419.98708 306.934701 
L 416.90167 304.965742 
L 413.991407 307.592154 
L 412.132489 307.113593 
L 408.032567 308.126423 
L 407.447672 309.951566 
L 404.703233 312.327598 
L 403.779658 312.461213 
L 402.167108 309.706764 
L 400.786865 304.06429 
L 399.328524 303.374168 
L 398.154607 303.068271 
L 399.296429 301.449073 
L 399.20641 300.592095 
L 404.208357 294.994095 
L 403.947928 293.552948 
L 407.119079 291.928133 
L 406.155614 287.409676 
L 407.012859 283.687063 
L 408.75975 282.685466 
L 407.441558 281.467112 
L 410.658253 277.621735 
L 410.897438 275.362698 
L 413.325051 274.817195 
L 416.645367 277.449224 
L 418.732314 277.321226 
L 420.206703 278.584474 
L 419.52812 281.188649 
L 421.353262 282.568662 
L 422.28234 284.710935 
L 424.369133 283.826294 
L 425.854985 280.68785 
L 429.316061 279.385744 
L 431.080069 280.376146 
L 430.401181 282.885793 
L 430.77379 284.0821 
L 431.647389 284.165662 
L 432.485377 283.236355 
L 436.043503 283.453303 
L 438.319505 285.456535 
L 436.833654 288.32794 
L 436.756625 288.531285 
L 435.6874 288.689545 
L 437.386148 290.727623 
" style="fill:#1f77b4;stroke:#ffffff;"/>
    <path clip-path="url(#pde5b93afb5)" d="M 424.227304 297.404744 
L 423.111616 293.091008 
L 425.437442 292.12846 
L 427.668817 289.424103 
L 428.225438 290.726209 
L 429.299249 291.154717 
L 429.366037 292.80177 
L 430.584735 294.126075 
L 431.152207 297.498126 
L 430.657942 298.474696 
L 429.304751 299.028375 
L 427.257083 297.932212 
L 424.227304 297.404744 
" style="fill:#17becf;stroke:#ffffff;"/>
    <path clip-path="url(#pde5b93afb5)" d="M 334.871139 306.506843 
L 329.683193 302.33379 
L 323.462396 300.096837 
L 323.206246 298.349563 
L 320.791471 298.438589 
L 317.861492 297.383539 
L 318.955172 295.172185 
L 320.295372 295.645321 
L 321.168818 294.554583 
L 322.022089 294.827201 
L 324.65236 293.864653 
L 327.184359 292.584784 
L 326.833911 290.965394 
L 328.414366 289.874848 
L 333.322321 292.395499 
L 336.900009 290.63726 
L 339.949045 293.74208 
L 339.293999 298.800194 
L 340.1974 300.914804 
L 338.236236 302.628759 
L 337.569116 302.461712 
L 337.162425 304.426048 
L 336.120862 304.748794 
L 334.871139 306.506843 
" style="fill:#7f7f7f;stroke:#ffffff;"/>
    <path clip-path="url(#pde5b93afb5)" d="M 436.700077 300.323069 
L 436.816842 302.161202 
L 435.047178 304.298049 
L 436.638943 306.418084 
L 434.943404 305.886796 
L 436.522178 311.504052 
L 436.038001 311.910323 
L 433.556284 310.374419 
L 431.486302 311.976997 
L 428.922361 312.862631 
L 426.940258 309.595386 
L 425.370807 309.740196 
L 424.79768 311.081161 
L 423.690093 311.00887 
L 419.98708 306.934701 
L 421.325294 302.617564 
L 423.840634 300.809043 
L 423.434401 298.444244 
L 424.227304 297.404744 
L 427.257083 297.932212 
L 429.304751 299.028375 
L 430.657942 298.474696 
L 434.863931 300.881371 
L 436.700077 300.323069 
" style="fill:#17becf;stroke:#ffffff;"/>
    <path clip-path="url(#pde5b93afb5)" d="M 602.744463 263.292718 
L 603.43512 261.362235 
L 602.477615 262.933482 
L 601.481903 264.567391 
L 602.05503 262.933482 
L 602.494886 261.679442 
L 603.496253 259.687329 
L 608.092579 256.983009 
L 610.224001 256.398114 
L 614.809017 254.495638 
L 633.288773 251.947133 
L 636.104279 251.223694 
L 638.235701 249.498734 
L 641.245917 248.797609 
L 644.857382 249.103659 
L 648.557795 248.474824 
L 645.413697 248.831003 
L 647.144388 248.040775 
L 650.405251 248.118721 
L 656.153334 249.443103 
L 652.987227 249.148133 
L 655.207292 250.066283 
L 657.967472 250.21094 
L 656.509437 249.77139 
L 657.193827 249.604419 
L 659.520264 250.131199 
L 659.492143 259.698485 
L 655.218602 266.954542 
L 621.876209 287.198345 
L 609.656223 270.321166 
L 608.921856 271.350617 
L 605.677498 270.415732 
L 606.083731 269.052339 
L 602.65047 269.130247 
L 602.744463 263.292718 
" style="fill:#ff7f0e;stroke:#ffffff;"/>
    <path clip-path="url(#pde5b93afb5)" d="M 573.475705 307.508745 
L 573.325622 307.080275 
L 577.248562 305.193923 
L 579.107022 304.498376 
L 579.696961 304.854479 
L 579.685957 305.294106 
L 577.72143 305.533367 
L 576.341646 307.119248 
L 575.701577 307.080275 
L 576.10781 306.356913 
L 573.475705 307.508745 
" style="fill:#ff7f0e;stroke:#ffffff;"/>
    <path clip-path="url(#pde5b93afb5)" d="M 560.578359 307.23586 
L 570.532124 305.700262 
L 572.986025 308.048478 
L 572.596604 308.649497 
L 571.350091 308.438052 
L 571.233326 307.70911 
L 570.059256 307.976188 
L 570.32641 308.460289 
L 569.469317 308.376842 
L 569.146532 309.378439 
L 571.027306 309.406254 
L 572.440714 310.257615 
L 570.743646 308.593866 
L 572.101422 308.766339 
L 572.752495 309.695569 
L 572.368576 309.940409 
L 573.653909 310.357798 
L 573.019648 311.665445 
L 574.098961 312.678198 
L 573.881937 311.420605 
L 574.744532 311.448421 
L 574.126777 310.585903 
L 580.67632 311.487393 
L 580.537241 310.424586 
L 579.407493 311.047767 
L 580.359037 309.912593 
L 583.497634 308.966628 
L 584.115083 307.892664 
L 586.391085 307.386325 
L 584.232153 307.703532 
L 584.910736 305.449844 
L 581.88921 304.042091 
L 585.439541 301.115092 
L 582.673859 302.611948 
L 581.772445 303.863963 
L 579.952805 304.092144 
L 581.577735 302.317055 
L 586.697058 300.202521 
L 590.241582 297.882121 
L 595.066242 293.931365 
L 596.579603 284.989207 
L 599.740208 282.602018 
L 601.114796 280.721168 
L 600.19657 278.517609 
L 600.908776 272.252031 
L 600.385778 269.792476 
L 601.03685 265.646933 
L 602.539207 263.866265 
L 602.744463 263.292718 
L 602.65047 269.130247 
L 606.083731 269.052339 
L 605.677498 270.415732 
L 608.921856 271.350617 
L 609.656223 270.321166 
L 621.876209 287.198345 
L 621.633509 323.912979 
L 590.543887 323.883138 
L 590.531049 320.935851 
L 586.413551 320.768957 
L 583.75898 319.02176 
L 581.099059 318.298397 
L 577.988584 318.354067 
L 577.643485 321.275372 
L 573.058315 321.264177 
L 570.57125 319.934216 
L 566.998605 317.14091 
L 567.093362 310.035089 
L 561.712386 310.012852 
L 560.578359 307.23586 
" style="fill:#ff7f0e;stroke:#ffffff;"/>
    <path clip-path="url(#pde5b93afb5)" d="M 474.993676 311.659905 
L 475.479382 312.577978 
L 474.254877 314.586826 
L 472.268495 315.466041 
L 470.743825 317.274525 
L 468.395685 317.519326 
L 465.858031 316.695819 
L 464.361176 317.079814 
L 462.591512 318.231494 
L 460.994857 320.735524 
L 457.149556 316.829243 
L 457.700675 314.414353 
L 457.016132 313.468426 
L 455.591568 314.091606 
L 454.044583 316.829243 
L 455.196645 320.435244 
L 453.082035 321.792829 
L 451.516099 320.31462 
L 451.112312 319.633745 
L 446.777332 319.789597 
L 445.019131 322.098917 
L 443.761614 321.831878 
L 442.999278 322.44948 
L 440.97912 320.40739 
L 437.606993 320.824665 
L 434.680224 320.062215 
L 433.305636 317.597272 
L 431.853562 317.78094 
L 431.391545 316.239457 
L 429.304751 315.527137 
L 428.922361 312.862631 
L 431.486302 311.976997 
L 433.556284 310.374419 
L 436.038001 311.910323 
L 436.522178 311.504052 
L 434.943404 305.886796 
L 436.638943 306.418084 
L 435.047178 304.298049 
L 436.816842 302.161202 
L 436.700077 300.323069 
L 437.206568 296.947236 
L 436.622132 292.12846 
L 437.386148 290.727623 
L 440.584197 291.805751 
L 440.739935 292.907531 
L 445.987181 298.344061 
L 448.313465 297.837646 
L 450.093827 296.19621 
L 451.930279 297.125326 
L 453.093039 296.162778 
L 453.288055 294.615679 
L 456.849085 294.526729 
L 457.711679 293.118862 
L 456.292769 292.757295 
L 454.473129 291.11563 
L 453.026404 291.533096 
L 452.314198 290.047321 
L 453.059569 289.412908 
L 450.683766 287.710147 
L 449.743226 287.916091 
L 449.943897 286.680696 
L 447.100117 286.780879 
L 444.796605 283.308684 
L 448.046159 278.122534 
L 447.278321 276.241684 
L 445.0633 275.8745 
L 445.041597 274.678193 
L 445.19703 273.93798 
L 446.710543 273.721033 
L 447.999239 271.568558 
L 450.70608 269.814751 
L 450.995241 266.871209 
L 452.308696 266.075326 
L 452.492096 264.099948 
L 455.296598 264.339325 
L 455.129704 267.193918 
L 458.396069 268.434738 
L 458.566938 270.404117 
L 457.400204 271.857032 
L 456.109216 270.816348 
L 454.796373 271.413738 
L 454.918182 275.112088 
L 456.126028 276.698046 
L 457.683864 276.853898 
L 458.691039 278.089063 
L 459.681555 277.799787 
L 460.57166 275.423793 
L 461.74038 274.973048 
L 462.357065 274.942825 
L 467.065724 277.276751 
L 467.249431 277.872115 
L 463.799359 282.318282 
L 464.283536 285.233971 
L 463.810363 286.558315 
L 462.897944 287.843762 
L 461.184065 288.52265 
L 462.919952 289.474194 
L 463.298369 292.217409 
L 465.062378 292.773916 
L 466.281075 294.115071 
L 468.874055 294.092643 
L 469.964677 294.899529 
L 468.401187 296.591248 
L 466.592551 296.379726 
L 464.695424 297.052997 
L 464.973428 299.7295 
L 465.034562 302.517382 
L 463.081345 304.876793 
L 464.533878 307.620008 
L 467.110046 307.403061 
L 469.224656 310.74164 
L 473.8543 309.21697 
L 474.993676 311.659905 
" style="fill:#17becf;stroke:#ffffff;"/>
    <path clip-path="url(#pde5b93afb5)" d="M 644.288839 310.61624 
L 640.593927 310.722765 
L 638.268713 315.566148 
L 636.644089 316.573323 
L 636.053844 319.064515 
L 633.510077 321.553415 
L 633.441913 322.74315 
L 629.53823 320.173554 
L 627.390608 321.17049 
L 627.412616 323.918519 
L 621.633509 323.912979 
L 621.876209 287.198345 
L 655.218602 266.954542 
L 659.492143 259.698485 
L 659.520264 250.131199 
L 660.265482 250.299966 
L 660.577263 250.900985 
L 665.496069 251.440718 
L 667.493914 250.422386 
L 667.732946 249.081345 
L 666.914979 248.831003 
L 665.179092 249.626732 
L 663.476217 249.131474 
L 662.385594 250.094099 
L 662.018181 249.637813 
L 663.103302 248.580585 
L 664.934252 248.942266 
L 668.067041 247.70691 
L 670.253788 248.6084 
L 672.162378 251.590954 
L 673.759492 251.574295 
L 674.059963 256.521145 
L 675.551316 257.161061 
L 674.666408 259.542671 
L 673.820625 259.943325 
L 672.757818 263.432217 
L 668.968455 267.911702 
L 665.785537 270.13192 
L 661.706706 275.924553 
L 660.866425 278.367374 
L 661.64007 282.318206 
L 661.616075 282.86218 
L 661.449028 283.282206 
L 660.860923 284.705395 
L 660.705033 283.598037 
L 661.35962 283.15799 
L 661.478678 282.04555 
L 660.616083 281.366662 
L 661.111265 282.707703 
L 659.892568 284.187899 
L 658.601733 284.299162 
L 657.010121 287.693526 
L 657.155007 286.669616 
L 655.519073 286.741983 
L 655.69147 288.383495 
L 657.082564 289.001173 
L 656.898858 290.136347 
L 658.963338 289.034567 
L 661.383921 289.39067 
L 661.938402 288.626119 
L 661.656576 288.233259 
L 661.573129 288.806463 
L 659.758991 288.611676 
L 661.417238 288.650649 
L 661.556623 287.554448 
L 662.074119 288.661729 
L 660.9945 291.299336 
L 659.670042 292.239723 
L 658.8912 292.334327 
L 659.453017 291.555257 
L 657.772456 292.245302 
L 656.771088 293.886814 
L 656.548562 295.294643 
L 657.494298 296.034741 
L 659.258307 293.91463 
L 660.304608 293.719919 
L 660.076274 294.604675 
L 661.083449 293.970261 
L 659.508649 295.945716 
L 657.25496 304.965742 
L 655.702474 306.913381 
L 655.112841 312.027126 
L 653.732751 314.063714 
L 653.34333 316.467638 
L 653.215255 315.571726 
L 652.469732 315.460463 
L 653.142812 313.874582 
L 652.580995 314.553394 
L 651.796346 311.515209 
L 648.669059 309.929328 
L 650.266173 306.640649 
L 649.537155 302.873523 
L 647.83428 305.850498 
L 647.678695 304.620796 
L 645.218986 306.573937 
L 646.510127 305.600156 
L 646.393056 306.857673 
L 647.266655 306.534964 
L 644.288839 310.61624 
" style="fill:#ff7f0e;stroke:#ffffff;"/>
    <path clip-path="url(#pde5b93afb5)" d="M 670.454 275.106586 
L 669.919999 272.379953 
L 671.544623 269.419637 
L 672.318268 268.918877 
L 673.748182 269.375163 
L 675.629261 268.395803 
L 672.613237 273.136787 
L 670.454 275.106586 
" style="fill:#ff7f0e;stroke:#ffffff;"/>
    <path clip-path="url(#pde5b93afb5)" d="M 447.100117 286.780879 
L 449.943897 286.680696 
L 449.743226 287.916091 
L 450.683766 287.710147 
L 453.059569 289.412908 
L 452.314198 290.047321 
L 453.026404 291.533096 
L 454.473129 291.11563 
L 456.292769 292.757295 
L 457.711679 293.118862 
L 456.849085 294.526729 
L 453.288055 294.615679 
L 453.093039 296.162778 
L 451.930279 297.125326 
L 450.093827 296.19621 
L 448.313465 297.837646 
L 445.987181 298.344061 
L 440.739935 292.907531 
L 440.584197 291.805751 
L 437.386148 290.727623 
L 435.6874 288.689545 
L 436.756625 288.531285 
L 440.105522 287.342964 
L 443.076918 288.45036 
L 443.655853 287.426487 
L 444.807609 285.957334 
L 447.100117 286.780879 
" style="fill:#17becf;stroke:#ffffff;"/>
    <path clip-path="url(#pde5b93afb5)" d="M 428.922361 312.862631 
L 429.304751 315.527137 
L 431.391545 316.239457 
L 431.853562 317.78094 
L 433.305636 317.597272 
L 434.680224 320.062215 
L 437.606993 320.824665 
L 440.97912 320.40739 
L 442.999278 322.44948 
L 443.53328 322.978132 
L 442.35921 326.528234 
L 442.35921 329.655483 
L 443.889536 332.076181 
L 444.139725 335.348048 
L 448.463395 338.069027 
L 449.698752 339.499131 
L 448.830808 342.643192 
L 448.329818 345.130372 
L 446.604782 346.315675 
L 445.150874 346.278842 
L 445.836945 347.428459 
L 443.360883 349.437308 
L 443.394354 352.241809 
L 440.578695 352.675934 
L 438.854423 353.957714 
L 434.296306 349.275953 
L 432.64356 349.849157 
L 429.193488 348.396776 
L 416.066891 346.165402 
L 412.911789 344.579521 
L 413.151126 344.039788 
L 412.344163 342.921273 
L 411.904613 343.817185 
L 411.125466 342.682012 
L 408.332274 341.491206 
L 406.167535 341.212972 
L 388.895625 334.97521 
L 387.777034 333.133333 
L 381.499993 329.933755 
L 379.89753 327.863697 
L 378.728962 327.94722 
L 377.187785 326.962283 
L 374.088314 322.772189 
L 370.838454 320.741179 
L 368.890892 320.512998 
L 366.943483 321.909671 
L 366.214159 321.855033 
L 366.910318 316.80158 
L 370.087429 316.239457 
L 371.83432 315.054154 
L 372.577857 314.48011 
L 372.28625 309.524968 
L 372.952605 308.359036 
L 377.44959 308.109191 
L 378.365676 309.774813 
L 379.656511 310.565958 
L 380.822481 310.690861 
L 383.947781 309.601003 
L 388.116478 310.252037 
L 389.646956 309.929328 
L 390.937027 311.43734 
L 391.684232 311.275871 
L 391.566091 310.724981 
L 394.014032 310.830781 
L 396.167461 312.527886 
L 397.391508 313.212391 
L 398.010485 312.232611 
L 395.466412 309.762434 
L 394.482773 304.442706 
L 395.316023 303.058872 
L 396.227525 304.543653 
L 398.154607 303.068271 
L 399.328524 303.374168 
L 400.786865 304.06429 
L 402.167108 309.706764 
L 403.779658 312.461213 
L 404.703233 312.327598 
L 407.447672 309.951566 
L 408.032567 308.126423 
L 412.132489 307.113593 
L 413.991407 307.592154 
L 416.90167 304.965742 
L 419.98708 306.934701 
L 423.690093 311.00887 
L 424.79768 311.081161 
L 425.370807 309.740196 
L 426.940258 309.595386 
L 428.922361 312.862631 
" style="fill:#bcbd22;stroke:#ffffff;"/>
    <path clip-path="url(#pde5b93afb5)" d="M 474.993676 311.659905 
L 477.29887 309.829146 
L 476.525225 306.646227 
L 481.900698 309.450767 
L 482.880058 312.505649 
L 484.927726 314.447786 
L 485.289178 316.005086 
L 485.91809 316.679199 
L 486.797496 316.573399 
L 487.020022 317.452423 
L 488.134487 317.003512 
L 492.790418 317.90336 
L 493.947676 319.260945 
L 494.047935 321.470082 
L 491.722109 324.714325 
L 494.231642 329.811335 
L 495.539135 330.273276 
L 498.844474 329.644441 
L 501.265057 327.641209 
L 502.767414 327.474161 
L 505.850379 325.632398 
L 505.944525 327.337948 
L 505.020491 328.408053 
L 508.677195 333.378249 
L 510.040626 333.595197 
L 510.719514 335.865468 
L 523.523325 336.861486 
L 532.630544 337.312193 
L 532.738139 340.077837 
L 531.992309 340.061216 
L 531.914364 342.687628 
L 529.265753 344.31806 
L 529.377016 347.272836 
L 527.629819 350.138433 
L 529.366012 354.679128 
L 528.423638 357.331025 
L 527.357163 355.808685 
L 525.982575 356.409704 
L 524.179747 355.94784 
L 522.722017 354.456563 
L 521.592269 354.768115 
L 521.759164 356.337337 
L 524.663924 357.667298 
L 523.250517 356.821438 
L 525.648786 357.105251 
L 526.455749 357.973271 
L 528.288686 358.448393 
L 528.731445 358.563133 
L 530.846055 360.427267 
L 528.837512 359.620744 
L 522.170898 356.943858 
L 519.499973 356.604414 
L 515.577033 356.415282 
L 517.758278 355.185505 
L 518.515112 353.977964 
L 516.728789 353.104366 
L 514.274888 355.191083 
L 513.896472 354.617879 
L 514.608983 353.705308 
L 512.828163 351.79114 
L 508.716014 354.851639 
L 512.650264 355.307924 
L 513.367972 354.673587 
L 513.434608 355.224477 
L 511.431567 355.530451 
L 514.503222 355.853236 
L 514.931463 356.465335 
L 507.358238 356.298364 
L 507.158026 357.055198 
L 505.649861 357.355669 
L 502.867673 359.230865 
L 502.723092 360.093383 
L 501.643474 360.794508 
L 491.143174 363.988545 
L 486.385761 366.53151 
L 481.294253 366.59272 
L 480.492792 367.494172 
L 473.214537 365.813687 
L 466.058549 362.091036 
L 454.272917 360.983678 
L 452.547728 359.926488 
L 452.570042 359.114023 
L 446.615939 356.409704 
L 448.674917 356.671203 
L 448.001531 356.064681 
L 441.975291 355.118716 
L 438.854423 353.957714 
L 440.578695 352.675934 
L 443.394354 352.241809 
L 443.360883 349.437308 
L 445.836945 347.428459 
L 445.150874 346.278842 
L 446.604782 346.315675 
L 448.329818 345.130372 
L 448.830808 342.643192 
L 449.698752 339.499131 
L 448.463395 338.069027 
L 444.139725 335.348048 
L 443.889536 332.076181 
L 442.35921 329.655483 
L 442.35921 326.528234 
L 443.53328 322.978132 
L 442.999278 322.44948 
L 443.761614 321.831878 
L 445.019131 322.098917 
L 446.777332 319.789597 
L 451.112312 319.633745 
L 451.516099 320.31462 
L 453.082035 321.792829 
L 455.196645 320.435244 
L 454.044583 316.829243 
L 455.591568 314.091606 
L 457.016132 313.468426 
L 457.700675 314.414353 
L 457.149556 316.829243 
L 460.994857 320.735524 
L 462.591512 318.231494 
L 464.361176 317.079814 
L 465.858031 316.695819 
L 468.395685 317.519326 
L 470.743825 317.274525 
L 472.268495 315.466041 
L 474.254877 314.586826 
L 475.479382 312.577978 
L 474.993676 311.659905 
" style="fill:#bcbd22;stroke:#ffffff;"/>
    <path clip-path="url(#pde5b93afb5)" d="M 538.320243 332.801339 
L 536.75553 331.252635 
L 537.028186 329.85581 
L 536.317814 329.077121 
L 535.264177 326.628379 
L 532.943853 325.854963 
L 532.804774 325.304073 
L 531.6197 325.38198 
L 530.734792 323.668025 
L 528.586865 322.683239 
L 529.06554 320.457481 
L 528.236264 318.915999 
L 528.202946 317.168764 
L 527.334085 316.100799 
L 532.749143 314.21395 
L 532.365224 315.198888 
L 534.223684 315.043074 
L 535.319809 313.607428 
L 538.508535 313.234667 
L 538.703245 312.12173 
L 533.227818 314.047055 
L 538.547354 311.81568 
L 547.055617 311.492972 
L 546.6772 312.822856 
L 547.767823 312.516806 
L 547.584116 313.501744 
L 548.368766 312.205178 
L 547.344779 311.632051 
L 551.607316 311.359395 
L 554.790234 309.473043 
L 556.064563 308.593866 
L 556.759957 311.693261 
L 556.926852 309.239283 
L 556.39285 307.881583 
L 560.578359 307.23586 
L 561.712386 310.012852 
L 567.093362 310.035089 
L 566.998605 317.14091 
L 570.57125 319.934216 
L 573.058315 321.264177 
L 577.643485 321.275372 
L 577.988584 318.354067 
L 581.099059 318.298397 
L 583.75898 319.02176 
L 586.413551 320.768957 
L 590.531049 320.935851 
L 590.543887 323.883138 
L 590.514237 335.192234 
L 581.427652 335.492706 
L 582.418015 333.778903 
L 581.650178 332.571362 
L 580.253429 332.226416 
L 580.02372 330.909485 
L 576.864643 330.195331 
L 576.886957 327.407449 
L 576.196759 326.016394 
L 574.293824 325.765822 
L 574.70938 324.823907 
L 574.433056 323.184038 
L 573.698536 322.510766 
L 571.912061 322.549624 
L 571.250138 323.200697 
L 571.149879 322.382768 
L 570.361867 322.048826 
L 568.601221 323.640171 
L 568.784927 324.525002 
L 567.081899 324.508382 
L 562.830977 325.960724 
L 562.413588 326.9457 
L 554.901497 333.077778 
L 553.488089 332.2208 
L 552.01905 329.699958 
L 550.405583 329.410681 
L 549.865621 325.693685 
L 550.232575 321.915211 
L 547.278143 321.420029 
L 544.835093 320.462869 
L 543.92833 321.097282 
L 542.275584 328.147433 
L 539.576844 330.134044 
L 538.320243 332.801339 
" style="fill:#ff7f0e;stroke:#ffffff;"/>
    <path clip-path="url(#pde5b93afb5)" d="M 581.427652 335.492706 
L 583.124719 336.789196 
L 584.63808 336.750223 
L 586.496846 339.610433 
L 587.820999 340.116771 
L 588.933935 342.270277 
L 590.475418 342.965824 
L 590.525547 342.264699 
L 591.087364 342.342568 
L 590.87034 342.887879 
L 591.77206 343.733738 
L 594.131204 344.228996 
L 595.915387 345.802268 
L 597.041467 347.450811 
L 596.896886 348.67501 
L 597.570272 348.708405 
L 597.303119 349.954841 
L 597.982007 350.127314 
L 597.520143 350.661545 
L 599.278344 350.639308 
L 600.574986 351.173462 
L 600.591798 351.818956 
L 602.294367 352.030402 
L 602.633964 353.037577 
L 601.804688 353.14884 
L 602.389125 353.527257 
L 601.020039 355.291189 
L 601.481903 355.602817 
L 601.014537 356.532124 
L 601.660107 356.99949 
L 600.992223 358.223689 
L 601.57666 358.307213 
L 601.047854 358.858103 
L 575.584812 358.852524 
L 565.924794 375.134262 
L 568.840559 378.829097 
L 567.159997 380.498426 
L 567.32139 382.440447 
L 566.436787 383.519951 
L 567.065546 386.880921 
L 566.408972 388.633735 
L 565.21595 389.390683 
L 554.166977 378.272629 
L 553.243249 376.970523 
L 554.628841 377.343361 
L 555.2576 378.651008 
L 554.751109 376.959404 
L 553.220936 376.202647 
L 553.104171 376.747958 
L 550.605642 375.195472 
L 546.23765 370.743841 
L 539.181615 365.168194 
L 531.519441 360.460642 
L 531.508131 360.032173 
L 532.459675 360.382735 
L 532.982978 359.92091 
L 532.214835 358.596528 
L 528.620182 357.61159 
L 528.423638 357.331025 
L 529.366012 354.679128 
L 527.629819 350.138433 
L 529.377016 347.272836 
L 529.265753 344.31806 
L 531.914364 342.687628 
L 531.992309 340.061216 
L 532.738139 340.077837 
L 532.630544 337.312193 
L 537.567995 334.162707 
L 538.320243 332.801339 
L 539.576844 330.134044 
L 542.275584 328.147433 
L 543.92833 321.097282 
L 544.835093 320.462869 
L 547.278143 321.420029 
L 550.232575 321.915211 
L 549.865621 325.693685 
L 550.405583 329.410681 
L 552.01905 329.699958 
L 553.488089 332.2208 
L 554.901497 333.077778 
L 562.413588 326.9457 
L 562.830977 325.960724 
L 567.081899 324.508382 
L 568.784927 324.525002 
L 568.601221 323.640171 
L 570.361867 322.048826 
L 571.149879 322.382768 
L 571.250138 323.200697 
L 571.912061 322.549624 
L 573.698536 322.510766 
L 574.433056 323.184038 
L 574.70938 324.823907 
L 574.293824 325.765822 
L 576.196759 326.016394 
L 576.886957 327.407449 
L 576.864643 330.195331 
L 580.02372 330.909485 
L 580.253429 332.226416 
L 581.650178 332.571362 
L 582.418015 333.778903 
L 581.427652 335.492706 
" style="fill:#bcbd22;stroke:#ffffff;"/>
    <path clip-path="url(#pde5b93afb5)" d="M 163.577062 104.815863 
L 158.212898 102.373043 
L 159.771193 100.709217 
L 159.55967 98.616997 
L 160.360979 96.207571 
L 164.13353 94.86653 
L 164.222479 96.992144 
L 165.491306 100.302984 
L 164.21713 103.708505 
L 164.545417 104.309448 
L 163.577062 104.815863 
" style="fill:#8c564b;stroke:#ffffff;"/>
    <path clip-path="url(#pde5b93afb5)" d="M 228.70982 52.993217 
L 233.070782 52.991154 
L 231.786824 56.020627 
L 232.894717 56.727369 
L 233.65583 55.764631 
L 234.919919 67.233094 
L 236.065715 68.368306 
L 238.463678 80.04833 
L 237.351812 91.900598 
L 235.464772 91.906214 
L 237.145486 104.520894 
L 235.83142 106.017711 
L 238.313443 114.175257 
L 236.572665 115.71674 
L 231.999263 113.991742 
L 230.072181 113.847123 
L 229.170614 114.442488 
L 228.49356 113.975122 
L 226.678657 116.445681 
L 231.336117 124.274903 
L 233.423522 125.743866 
L 234.118611 127.99209 
L 236.516575 129.583435 
L 236.27204 131.903988 
L 236.895144 133.60671 
L 236.316209 136.956523 
L 237.540103 139.237798 
L 240.202469 140.774849 
L 240.088302 142.687947 
L 239.900011 143.366835 
L 226.735817 153.253086 
L 226.439472 152.492546 
L 224.636644 153.366221 
L 224.781225 151.056901 
L 224.063517 149.298547 
L 220.129267 146.271443 
L 220.908414 145.931999 
L 219.483697 145.420082 
L 219.244664 144.707799 
L 218.259497 145.336635 
L 219.416908 146.366047 
L 217.041106 145.954313 
L 215.616388 146.505126 
L 213.451955 145.281003 
L 210.641798 140.272942 
L 211.938288 141.168778 
L 210.33017 137.891332 
L 208.310317 138.080464 
L 203.274441 136.889659 
L 201.271247 134.708413 
L 199.367854 134.007288 
L 200.636681 133.75687 
L 199.757733 132.304566 
L 198.483557 132.638431 
L 198.016191 129.305277 
L 196.841968 126.856878 
L 198.177431 126.400593 
L 197.526358 126.406171 
L 197.732073 125.593706 
L 198.672612 125.215366 
L 197.537362 125.020579 
L 197.370468 123.518146 
L 199.240237 123.156464 
L 199.367854 122.644547 
L 197.487233 122.227234 
L 197.359464 122.772546 
L 194.042968 121.620637 
L 192.596243 121.865476 
L 193.352771 121.475979 
L 192.546113 120.240699 
L 191.716837 122.054685 
L 192.367909 122.082501 
L 191.967179 123.262225 
L 189.646855 120.61904 
L 187.521241 121.258955 
L 184.761367 118.838372 
L 180.398571 113.40742 
L 180.816113 112.372429 
L 175.613342 110.65855 
L 174.255413 108.182335 
L 170.571505 104.710102 
L 171.42875 104.264974 
L 172.246717 104.999493 
L 172.413459 103.947767 
L 170.137609 103.280036 
L 167.305292 100.664742 
L 166.214822 100.486614 
L 166.186853 97.236984 
L 165.046101 96.229809 
L 165.296596 93.887171 
L 163.732952 93.219363 
L 162.775754 93.458701 
L 162.714773 94.070801 
L 161.668472 93.330703 
L 161.295863 92.317949 
L 161.95794 89.908523 
L 157.940243 85.646062 
L 156.220861 81.901173 
L 154.629555 81.567308 
L 154.367903 75.724545 
L 153.121543 74.355688 
L 152.270106 74.322294 
L 152.63171 73.036885 
L 152.053081 71.256293 
L 147.851984 65.90321 
L 147.13397 63.588388 
L 147.86849 60.883993 
L 147.072684 58.49688 
L 148.118832 59.871239 
L 148.636327 56.387925 
L 147.545705 55.219358 
L 146.633286 55.252752 
L 147.356649 55.80922 
L 146.750051 55.87043 
L 144.696881 54.084184 
L 144.040307 54.523811 
L 145.119619 54.985598 
L 144.412916 55.041306 
L 136.74524 52.871141 
L 137.229112 52.804353 
L 136.694957 49.916327 
L 131.742681 47.668294 
L 130.58527 47.824108 
L 130.251328 46.64446 
L 129.811778 48.402813 
L 130.540795 48.491839 
L 129.639075 49.499014 
L 128.515135 49.999851 
L 126.05023 49.766092 
L 117.75349 44.630109 
L 115.488645 44.490954 
L 109.059382 40.890913 
L 109.439938 37.11244 
L 108.586666 34.737401 
L 110.135026 32.454903 
L 110.685993 30.36276 
L 113.037648 29.733772 
L 113.00433 30.081011 
L 142.904292 38.966391 
L 182.157689 51.228559 
L 188.11821 53.149719 
L 200.525723 53.10918 
L 228.70982 52.993217 
" style="fill:#8c564b;stroke:#ffffff;"/>
    <path clip-path="url(#pde5b93afb5)" d="M 240.202469 140.774849 
L 237.540103 139.237798 
L 236.316209 136.956523 
L 236.895144 133.60671 
L 236.27204 131.903988 
L 236.516575 129.583435 
L 234.118611 127.99209 
L 233.423522 125.743866 
L 231.336117 124.274903 
L 226.678657 116.445681 
L 228.49356 113.975122 
L 229.170614 114.442488 
L 230.072181 113.847123 
L 231.999263 113.991742 
L 236.572665 115.71674 
L 238.313443 114.175257 
L 235.83142 106.017711 
L 237.145486 104.520894 
L 235.464772 91.906214 
L 237.351812 91.900598 
L 238.463678 80.04833 
L 236.065715 68.368306 
L 234.919919 67.233094 
L 233.65583 55.764631 
L 232.894717 56.727369 
L 231.786824 56.020627 
L 233.070782 52.991154 
L 245.435654 52.985308 
L 245.583903 44.109786 
L 264.006805 44.146313 
L 278.911318 44.121936 
L 282.034937 45.172325 
L 285.44619 50.293254 
L 289.740975 51.982183 
L 294.320948 56.450129 
L 297.656547 58.139898 
L 298.634837 59.905588 
L 301.545864 61.824188 
L 301.92153 62.814361 
L 303.454606 63.547008 
L 303.979132 63.237673 
L 304.568307 63.924699 
L 305.446643 63.635576 
L 308.527163 66.123902 
L 309.789571 66.194741 
L 310.002163 67.056304 
L 311.930315 68.473953 
L 312.685161 72.045566 
L 313.617142 72.36239 
L 313.467212 72.88279 
L 315.69767 75.126009 
L 316.255667 76.9194 
L 315.820243 78.755585 
L 316.263461 81.720753 
L 318.20277 83.75096 
L 319.050387 86.324492 
L 322.208546 88.905741 
L 325.671304 90.239293 
L 326.479642 91.908507 
L 328.858502 93.362759 
L 334.03957 94.581915 
L 334.424864 94.301847 
L 334.136467 95.332406 
L 334.983931 95.321326 
L 335.375338 96.116941 
L 339.263127 96.998066 
L 340.308052 98.490718 
L 342.283736 99.292523 
L 343.083668 98.927327 
L 343.992571 99.981154 
L 330.680129 122.561138 
L 337.166551 146.78955 
L 332.893622 145.431162 
L 326.000508 144.880273 
L 318.732798 153.009965 
L 317.60305 152.909974 
L 315.237182 151.006924 
L 313.812923 151.351871 
L 312.867339 150.16118 
L 309.539993 150.828835 
L 307.298378 149.587824 
L 306.969938 149.187208 
L 303.207779 150.839839 
L 298.015554 148.257901 
L 296.981786 146.755468 
L 294.638078 146.91132 
L 289.157302 143.23322 
L 287.867078 145.308742 
L 287.164043 144.61885 
L 286.637224 144.963796 
L 286.258502 148.185573 
L 284.910354 151.719054 
L 282.802928 152.642744 
L 280.693667 152.492508 
L 282.34626 157.077716 
L 281.633137 158.429875 
L 279.275369 159.609562 
L 279.018913 164.255865 
L 274.878185 167.594635 
L 267.991185 167.923343 
L 266.636924 164.528673 
L 263.672252 161.167665 
L 262.336025 157.723133 
L 253.962562 156.020411 
L 252.714521 147.21183 
L 249.565532 143.611637 
L 248.930507 141.051898 
L 245.224591 140.545674 
L 244.657577 139.182281 
L 243.527829 138.770432 
L 241.530596 139.382608 
L 240.202469 140.774849 
" style="fill:#2ca02c;stroke:#ffffff;"/>
    <path clip-path="url(#pde5b93afb5)" d="M 343.992571 99.981154 
L 344.18881 100.208686 
L 344.464522 99.786406 
L 346.73059 100.362781 
L 350.043265 96.112317 
L 352.485703 95.347613 
L 351.641296 94.542981 
L 352.148399 92.856918 
L 353.366485 91.68556 
L 353.716627 89.315718 
L 356.288057 85.027238 
L 357.064301 85.265353 
L 358.2885 84.345675 
L 358.780319 84.921553 
L 359.758915 84.201285 
L 362.128757 84.552039 
L 362.474009 83.002685 
L 363.339965 82.305037 
L 368.555116 84.219014 
L 370.371547 83.53386 
L 371.355033 84.140266 
L 373.460931 83.626974 
L 373.739241 84.3106 
L 374.662969 84.167012 
L 377.055278 84.77212 
L 378.220789 84.608053 
L 378.972732 83.707211 
L 379.085065 84.65077 
L 380.444828 84.136484 
L 380.886365 84.699485 
L 381.830879 84.512799 
L 381.533922 85.003013 
L 382.48944 86.771302 
L 383.742219 86.866059 
L 383.68078 88.2988 
L 384.769416 87.340455 
L 384.632324 89.38927 
L 388.519959 90.449402 
L 389.687916 92.458594 
L 393.936086 95.077861 
L 394.504628 96.598941 
L 396.504613 98.331695 
L 396.936215 101.49123 
L 398.086749 102.05469 
L 399.927327 106.726898 
L 401.825066 108.15429 
L 401.49739 109.066594 
L 402.974377 109.935607 
L 402.354024 110.379513 
L 402.858834 112.071614 
L 404.03428 113.550434 
L 403.933562 114.351857 
L 405.425068 115.131042 
L 405.613206 115.92276 
L 407.959971 116.877361 
L 410.035608 119.898657 
L 411.066319 120.230765 
L 412.410952 124.020778 
L 413.592969 124.372907 
L 413.751458 124.558601 
L 410.441076 127.274115 
L 406.245633 124.091196 
L 403.663505 125.777336 
L 401.321784 131.9707 
L 398.182729 132.087465 
L 393.419049 135.287042 
L 393.969863 139.471558 
L 394.693073 139.065287 
L 395.879064 139.794267 
L 396.70834 138.575722 
L 398.889891 139.388225 
L 399.228418 142.660093 
L 398.571385 144.568759 
L 397.565738 144.99165 
L 395.98513 147.445589 
L 393.992024 145.854015 
L 385.490333 152.609502 
L 389.152233 157.038819 
L 390.882924 157.801078 
L 391.604147 158.891816 
L 391.521922 160.277255 
L 393.224797 161.67408 
L 393.4811 165.162895 
L 395.678698 167.811774 
L 397.036933 167.878486 
L 397.191142 168.980266 
L 398.443158 169.481064 
L 398.327004 170.076428 
L 396.389834 169.319595 
L 396.045194 170.248901 
L 398.248753 171.167166 
L 401.053255 173.509727 
L 403.835748 173.554202 
L 406.101511 174.539216 
L 404.709194 174.956491 
L 406.077363 176.239952 
L 405.310137 175.785194 
L 402.395442 176.909631 
L 401.143427 175.819047 
L 399.012005 175.490722 
L 395.706667 176.086086 
L 394.414609 176.94868 
L 393.36892 179.285625 
L 395.912993 181.444709 
L 394.132172 182.212547 
L 393.397041 188.878893 
L 392.42945 188.049731 
L 389.941467 188.283529 
L 385.017465 183.865216 
L 383.43701 184.49963 
L 382.651749 183.648268 
L 380.949027 184.844576 
L 378.256705 184.983807 
L 377.649649 184.304919 
L 378.138412 182.908056 
L 374.917285 181.951125 
L 373.092296 179.525039 
L 364.684751 176.94868 
L 356.499579 177.699897 
L 356.477571 178.545642 
L 353.226336 182.835956 
L 353.582897 186.141295 
L 350.772435 184.098975 
L 346.593651 183.075141 
L 345.019156 181.978978 
L 344.612465 178.885009 
L 341.820038 177.048825 
L 339.694577 174.53658 
L 341.212981 173.381729 
L 341.535461 172.346661 
L 340.099281 170.744313 
L 340.095154 169.208408 
L 343.278379 165.174129 
L 343.072053 158.519016 
L 344.217848 154.3345 
L 343.344403 152.342272 
L 337.166551 146.78955 
L 330.680129 122.561138 
L 343.992571 99.981154 
" style="fill:#2ca02c;stroke:#ffffff;"/>
    <path clip-path="url(#pde5b93afb5)" d="M 301.685401 218.777824 
L 300.469455 219.311253 
L 299.968618 220.707925 
L 300.842064 222.054468 
L 298.888847 223.395624 
L 298.215766 225.076147 
L 300.136888 226.511639 
L 300.635738 229.165943 
L 296.833537 230.422162 
L 295.823916 230.683966 
L 295.425784 230.779105 
L 295.305656 229.6557 
L 294.588101 229.494307 
L 293.374753 226.934645 
L 289.691304 223.812937 
L 290.030595 223.122892 
L 289.129181 223.590334 
L 285.334315 219.177714 
L 282.123581 216.434346 
L 281.199853 216.512291 
L 279.241134 212.094093 
L 273.637632 207.158323 
L 271.295148 202.723389 
L 262.169131 196.018184 
L 261.735235 195.11677 
L 253.733464 190.203237 
L 254.056402 189.769265 
L 259.711562 193.285667 
L 258.6188 192.479163 
L 259.759704 192.946605 
L 260.154933 192.228745 
L 259.158762 189.674661 
L 257.951374 189.641267 
L 257.745201 190.080817 
L 258.591289 190.114211 
L 256.938697 191.049096 
L 256.254001 190.169919 
L 254.818585 190.108709 
L 253.483275 188.33362 
L 250.951276 187.359839 
L 253.421683 189.574479 
L 249.799215 187.170631 
L 248.441438 184.510786 
L 249.804717 185.072757 
L 250.155318 184.699995 
L 249.432108 183.364456 
L 249.854693 180.827108 
L 248.636149 180.08701 
L 248.831165 183.44798 
L 247.61262 183.681663 
L 245.063809 179.513883 
L 243.11044 178.089318 
L 244.061983 178.011449 
L 246.054479 180.448691 
L 247.08947 180.615586 
L 246.994713 179.708593 
L 246.371303 179.502726 
L 246.783191 178.92402 
L 247.628973 179.78096 
L 249.648979 179.97567 
L 248.480564 178.323077 
L 247.122788 177.582979 
L 246.293511 177.90011 
L 245.253018 176.659251 
L 242.582093 176.714883 
L 242.51561 175.99152 
L 243.344428 176.325386 
L 243.294146 175.229185 
L 242.370571 174.795136 
L 241.658365 177.204563 
L 241.758471 175.941467 
L 240.890527 174.795136 
L 235.058998 172.947757 
L 237.810925 173.163023 
L 236.566857 172.163108 
L 234.213215 172.463579 
L 235.086814 172.012872 
L 234.675079 171.200483 
L 234.107454 171.411929 
L 234.263039 169.202792 
L 231.636589 168.818873 
L 232.05948 169.903917 
L 231.213697 170.927828 
L 230.702009 170.070888 
L 229.366547 170.137677 
L 229.021448 170.849883 
L 227.429836 169.525577 
L 228.470482 168.496088 
L 229.678022 168.65748 
L 230.023121 169.308553 
L 230.184514 168.256826 
L 232.048476 166.637551 
L 233.055804 164.072311 
L 231.597616 166.142293 
L 228.253611 168.290221 
L 226.868019 168.485007 
L 226.161162 167.088259 
L 224.447436 166.448343 
L 226.467288 168.941293 
L 224.608675 167.438859 
L 221.476039 167.221835 
L 223.595845 166.865732 
L 223.851842 165.864136 
L 222.127112 164.767858 
L 221.603961 166.470657 
L 221.431412 164.851382 
L 220.730363 164.233704 
L 221.262989 162.831224 
L 220.991861 159.743138 
L 224.475251 153.889295 
L 223.896622 156.955296 
L 225.309724 153.238223 
L 226.300394 153.516457 
L 226.550735 154.484659 
L 226.099876 154.729499 
L 227.585727 155.842436 
L 227.969798 154.390055 
L 226.979282 153.878138 
L 226.735817 153.253086 
L 239.900011 143.366835 
L 240.088302 142.687947 
L 240.202469 140.774849 
L 241.530596 139.382608 
L 243.527829 138.770432 
L 244.657577 139.182281 
L 245.224591 140.545674 
L 248.930507 141.051898 
L 249.565532 143.611637 
L 252.714521 147.21183 
L 253.962562 156.020411 
L 262.336025 157.723133 
L 263.672252 161.167665 
L 266.636924 164.528673 
L 267.991185 167.923343 
L 267.177803 174.166416 
L 267.522443 177.087721 
L 270.699554 183.230994 
L 271.979538 184.666486 
L 273.259674 184.805718 
L 276.915461 188.628475 
L 279.307311 194.048385 
L 281.773286 194.393369 
L 284.716102 192.278951 
L 289.664099 195.85129 
L 290.515384 198.115944 
L 291.549152 198.989772 
L 291.995733 204.910289 
L 294.449787 208.978039 
L 295.389256 210.71962 
L 296.034368 214.375521 
L 297.041849 215.052193 
L 299.145302 217.23573 
L 301.392877 217.180023 
L 301.685401 218.777824 
" style="fill:#8c564b;stroke:#ffffff;"/>
    <path clip-path="url(#pde5b93afb5)" d="M 323.534533 233.766931 
L 322.861453 231.119084 
L 319.928723 231.942782 
L 317.502791 230.696193 
L 316.539326 227.652506 
L 314.598183 226.606205 
L 309.778414 229.177139 
L 309.778414 226.56173 
L 312.144282 224.475166 
L 311.449041 221.637193 
L 306.294871 219.33349 
L 303.480282 219.433673 
L 301.685401 218.777824 
L 301.392877 217.180023 
L 299.145302 217.23573 
L 297.041849 215.052193 
L 296.034368 214.375521 
L 295.389256 210.71962 
L 294.449787 208.978039 
L 291.995733 204.910289 
L 291.549152 198.989772 
L 290.515384 198.115944 
L 289.664099 195.85129 
L 284.716102 192.278951 
L 281.773286 194.393369 
L 279.307311 194.048385 
L 276.915461 188.628475 
L 273.259674 184.805718 
L 271.979538 184.666486 
L 270.699554 183.230994 
L 267.522443 177.087721 
L 267.177803 174.166416 
L 267.991185 167.923343 
L 274.878185 167.594635 
L 279.018913 164.255865 
L 279.275369 159.609562 
L 281.633137 158.429875 
L 282.34626 157.077716 
L 280.693667 152.492508 
L 282.802928 152.642744 
L 284.910354 151.719054 
L 286.258502 148.185573 
L 286.637224 144.963796 
L 287.164043 144.61885 
L 287.867078 145.308742 
L 289.157302 143.23322 
L 294.638078 146.91132 
L 296.981786 146.755468 
L 298.015554 148.257901 
L 303.207779 150.839839 
L 306.969938 149.187208 
L 307.298378 149.587824 
L 309.539993 150.828835 
L 312.867339 150.16118 
L 313.812923 151.351871 
L 315.237182 151.006924 
L 317.60305 152.909974 
L 318.732798 153.009965 
L 326.000508 144.880273 
L 332.893622 145.431162 
L 337.166551 146.78955 
L 343.344403 152.342272 
L 344.217848 154.3345 
L 343.072053 158.519016 
L 343.278379 165.174129 
L 340.095154 169.208408 
L 340.099281 170.744313 
L 341.535461 172.346661 
L 341.212981 173.381729 
L 339.694577 174.53658 
L 341.820038 177.048825 
L 344.612465 178.885009 
L 345.019156 181.978978 
L 346.593651 183.075141 
L 350.772435 184.098975 
L 353.582897 186.141295 
L 353.226336 182.835956 
L 356.477571 178.545642 
L 359.720859 183.498033 
L 359.548462 191.037939 
L 355.107415 190.904324 
L 354.468417 191.405161 
L 344.446182 190.559378 
L 337.535034 194.577037 
L 337.773455 196.441038 
L 332.759434 198.633401 
L 332.264557 202.873625 
L 332.605224 205.366613 
L 333.612858 206.613011 
L 331.381178 207.6425 
L 331.040664 208.649523 
L 328.208041 211.164748 
L 327.847505 216.20628 
L 326.373117 217.268972 
L 325.744053 218.871741 
L 324.592297 231.709023 
L 323.534533 233.766931 
" style="fill:#2ca02c;stroke:#ffffff;"/>
    <path clip-path="url(#pde5b93afb5)" d="M 379.354358 243.033249 
L 373.837514 239.855527 
L 372.918065 239.925831 
L 371.11111 237.868916 
L 368.707339 237.401397 
L 369.352298 235.114506 
L 366.744035 234.446813 
L 366.716066 233.667589 
L 365.446016 232.705041 
L 364.356311 233.033367 
L 364.083808 231.018901 
L 363.310621 230.96881 
L 360.810565 233.406167 
L 357.11657 234.585853 
L 355.676263 238.492134 
L 352.915778 241.558288 
L 352.775629 243.700522 
L 354.985148 245.686904 
L 354.418287 247.818364 
L 357.032511 249.237235 
L 356.07088 252.542536 
L 353.138151 253.772313 
L 351.673849 253.610883 
L 350.562136 254.490098 
L 349.115716 254.050586 
L 348.090048 256.437622 
L 348.687017 259.103121 
L 338.931324 256.2261 
L 337.751447 256.426618 
L 336.861954 255.347076 
L 335.041091 256.12053 
L 334.468116 255.708642 
L 334.718611 255.152365 
L 335.726245 252.442391 
L 335.109255 249.84922 
L 336.777895 250.951 
L 339.504299 248.313546 
L 339.598444 245.531281 
L 338.831218 244.457356 
L 340.850459 243.20534 
L 341.90807 241.496963 
L 343.933425 240.511987 
L 346.383352 240.656606 
L 347.979854 238.353132 
L 347.244723 237.20107 
L 348.690991 234.430001 
L 345.770335 233.995914 
L 346.209121 232.777332 
L 342.342882 230.0285 
L 341.607598 231.436367 
L 342.35893 233.600877 
L 339.341989 237.811833 
L 337.018303 238.525376 
L 336.132783 237.902196 
L 335.764301 237.23691 
L 337.485057 229.650121 
L 336.605651 228.67634 
L 334.952906 228.615054 
L 332.404859 236.477707 
L 332.098274 230.924374 
L 333.105908 230.356825 
L 332.360843 228.598395 
L 334.36801 227.407513 
L 333.738946 225.677128 
L 329.6323 224.842349 
L 329.888755 226.968001 
L 329.183579 228.503867 
L 331.341135 229.928355 
L 330.768161 232.788565 
L 326.883888 233.305984 
L 323.170024 234.862101 
L 323.534533 233.766931 
L 324.592297 231.709023 
L 325.744053 218.871741 
L 326.373117 217.268972 
L 327.847505 216.20628 
L 328.208041 211.164748 
L 331.040664 208.649523 
L 331.381178 207.6425 
L 333.612858 206.613011 
L 332.605224 205.366613 
L 332.264557 202.873625 
L 332.759434 198.633401 
L 337.773455 196.441038 
L 337.535034 194.577037 
L 344.446182 190.559378 
L 354.468417 191.405161 
L 355.107415 190.904324 
L 359.548462 191.037939 
L 359.720859 183.498033 
L 356.477571 178.545642 
L 356.499579 177.699897 
L 364.684751 176.94868 
L 373.092296 179.525039 
L 374.917285 181.951125 
L 378.138412 182.908056 
L 377.649649 184.304919 
L 378.256705 184.983807 
L 380.949027 184.844576 
L 382.651749 183.648268 
L 383.43701 184.49963 
L 385.017465 183.865216 
L 389.941467 188.283529 
L 392.42945 188.049731 
L 393.397041 188.878893 
L 390.231851 192.111903 
L 386.401682 197.826668 
L 381.812386 202.13922 
L 376.141179 206.229016 
L 375.151579 207.909501 
L 372.435263 209.150512 
L 368.685178 212.644944 
L 365.974822 212.344435 
L 365.958774 213.446214 
L 364.216009 215.772155 
L 365.94074 217.864527 
L 364.929132 220.084707 
L 366.976495 223.929702 
L 368.206502 225.020439 
L 371.151152 227.730413 
L 372.425329 230.28293 
L 375.680537 230.929952 
L 378.43491 228.181158 
L 380.231778 227.769271 
L 382.357238 228.258874 
L 383.631262 229.438752 
L 383.881756 231.057989 
L 382.645636 232.237675 
L 383.286774 238.575467 
L 379.354358 243.033249 
" style="fill:#9467bd;stroke:#ffffff;"/>
    <path clip-path="url(#pde5b93afb5)" d="M 408.755777 215.299211 
L 408.114639 217.708675 
L 409.384688 217.580677 
L 411.743068 220.084707 
L 411.175596 221.520428 
L 408.928021 223.356575 
L 409.567019 224.0577 
L 419.305441 227.8416 
L 419.194178 225.604608 
L 421.431361 227.472391 
L 422.360285 226.550726 
L 425.304018 231.224845 
L 432.348438 233.339455 
L 436.221707 231.764502 
L 437.624416 231.778142 
L 443.043447 235.58745 
L 440.565857 239.818083 
L 440.323157 240.187865 
L 439.951006 240.679646 
L 438.175841 240.656835 
L 438.480897 241.341111 
L 439.576869 241.135205 
L 438.848004 241.496963 
L 439.204107 241.931088 
L 438.6698 242.476361 
L 439.526892 243.433292 
L 440.144647 243.127395 
L 440.934645 244.524029 
L 439.443445 245.759424 
L 438.692114 245.603572 
L 438.692114 246.382642 
L 437.69044 246.276881 
L 437.100807 247.996224 
L 439.46041 249.610035 
L 439.649312 252.203015 
L 437.829978 253.494079 
L 437.54586 255.886732 
L 433.717676 256.487713 
L 431.825593 255.864495 
L 431.074262 254.312008 
L 429.067247 254.818614 
L 428.175309 254.440006 
L 425.927122 247.295099 
L 424.819993 247.656895 
L 423.990717 248.897677 
L 422.582811 249.042525 
L 421.681397 250.956617 
L 418.32058 251.702217 
L 416.100209 249.081383 
L 415.048712 249.74365 
L 414.097474 251.796553 
L 406.03136 248.449568 
L 403.952055 247.194954 
L 401.237572 247.161675 
L 398.889891 249.866032 
L 397.719948 250.049547 
L 394.843308 248.797532 
L 390.498394 245.269629 
L 385.784691 244.818922 
L 383.402928 242.93811 
L 381.321636 243.466763 
L 379.354358 243.033249 
L 383.286774 238.575467 
L 382.645636 232.237675 
L 383.881756 231.057989 
L 383.631262 229.438752 
L 382.357238 228.258874 
L 380.231778 227.769271 
L 378.43491 228.181158 
L 375.680537 230.929952 
L 372.425329 230.28293 
L 371.151152 227.730413 
L 368.206502 225.020439 
L 366.976495 223.929702 
L 364.929132 220.084707 
L 365.94074 217.864527 
L 364.216009 215.772155 
L 365.958774 213.446214 
L 365.974822 212.344435 
L 368.685178 212.644944 
L 372.435263 209.150512 
L 375.151579 207.909501 
L 376.141179 206.229016 
L 381.812386 202.13922 
L 386.401682 197.826668 
L 390.231851 192.111903 
L 393.397041 188.878893 
L 398.088583 194.270949 
L 398.639396 197.34249 
L 397.854136 200.898247 
L 401.544157 205.155091 
L 400.524449 207.892881 
L 401.331718 211.87149 
L 400.780905 214.55361 
L 401.199517 215.794392 
L 402.451532 216.234095 
L 403.825814 215.16017 
L 408.755777 215.299211 
" style="fill:#9467bd;stroke:#ffffff;"/>
    <path clip-path="url(#pde5b93afb5)" d="M 415.547409 126.661595 
L 411.58733 129.522339 
L 412.005025 131.035777 
L 413.902152 130.846683 
L 414.942951 131.725707 
L 415.927812 136.811866 
L 415.248924 141.730786 
L 417.235306 142.020063 
L 418.587733 142.954948 
L 417.291091 146.766701 
L 419.895533 146.549753 
L 421.620263 147.445589 
L 422.271336 149.816005 
L 420.986003 150.945638 
L 422.176884 152.921016 
L 423.601296 152.804213 
L 424.95357 154.200885 
L 426.388833 154.223084 
L 427.655368 158.47435 
L 429.691879 158.119775 
L 430.004119 158.255186 
L 432.003797 160.154835 
L 433.633924 158.875004 
L 438.247061 159.214524 
L 438.820189 160.28845 
L 438.564345 169.636916 
L 440.9403 170.187806 
L 441.073877 171.595483 
L 431.842558 178.587327 
L 431.439229 178.529021 
L 430.078396 178.578921 
L 429.104539 177.610757 
L 427.808049 179.129773 
L 426.917791 179.035245 
L 427.079184 179.819894 
L 426.021879 182.546489 
L 426.650791 184.555337 
L 424.747397 183.987827 
L 421.64273 184.939333 
L 418.559918 187.21522 
L 418.058928 186.987039 
L 415.276893 189.50769 
L 416.428496 190.603853 
L 417.369036 190.136525 
L 418.770981 192.724079 
L 417.675009 195.739912 
L 417.786272 198.555647 
L 420.095592 200.224937 
L 420.908057 202.228169 
L 419.939702 202.205932 
L 417.958975 204.83796 
L 413.134315 205.171711 
L 410.775171 209.478647 
L 412.138296 212.667182 
L 409.416783 211.910539 
L 408.459279 213.017745 
L 409.044174 213.796777 
L 408.755777 215.299211 
L 403.825814 215.16017 
L 402.451532 216.234095 
L 401.199517 215.794392 
L 400.780905 214.55361 
L 401.331718 211.87149 
L 400.524449 207.892881 
L 401.544157 205.155091 
L 397.854136 200.898247 
L 398.639396 197.34249 
L 398.088583 194.270949 
L 393.397041 188.878893 
L 394.132172 182.212547 
L 395.912993 181.444709 
L 393.36892 179.285625 
L 394.414609 176.94868 
L 395.706667 176.086086 
L 399.012005 175.490722 
L 401.143427 175.819047 
L 402.395442 176.909631 
L 405.310137 175.785194 
L 406.077363 176.239952 
L 404.709194 174.956491 
L 406.101511 174.539216 
L 403.835748 173.554202 
L 401.053255 173.509727 
L 398.248753 171.167166 
L 396.045194 170.248901 
L 396.389834 169.319595 
L 398.327004 170.076428 
L 398.443158 169.481064 
L 397.191142 168.980266 
L 397.036933 167.878486 
L 395.678698 167.811774 
L 393.4811 165.162895 
L 393.224797 161.67408 
L 391.521922 160.277255 
L 391.604147 158.891816 
L 390.882924 157.801078 
L 389.152233 157.038819 
L 385.490333 152.609502 
L 393.992024 145.854015 
L 395.98513 147.445589 
L 397.565738 144.99165 
L 398.571385 144.568759 
L 399.228418 142.660093 
L 398.889891 139.388225 
L 396.70834 138.575722 
L 395.879064 139.794267 
L 394.693073 139.065287 
L 393.969863 139.471558 
L 393.419049 135.287042 
L 398.182729 132.087465 
L 401.321784 131.9707 
L 403.663505 125.777336 
L 406.245633 124.091196 
L 410.441076 127.274115 
L 413.751458 124.558601 
L 415.547409 126.661595 
" style="fill:#9467bd;stroke:#ffffff;"/>
    <path clip-path="url(#pde5b93afb5)" d="M 466.548382 160.942541 
L 466.620366 165.891951 
L 464.177775 171.400772 
L 460.377102 177.577401 
L 458.296116 184.37721 
L 456.214824 193.636574 
L 455.435677 204.309346 
L 453.610535 204.426188 
L 454.857048 204.787869 
L 454.907178 207.158323 
L 455.50812 205.093919 
L 454.645526 214.102865 
L 455.146515 222.01561 
L 454.86255 223.145205 
L 454.795914 221.631615 
L 453.855375 224.664298 
L 452.519912 225.460027 
L 453.0154 225.966366 
L 452.163809 228.008532 
L 452.653489 228.520526 
L 453.410322 226.895673 
L 453.054219 229.783622 
L 454.435838 234.791682 
L 454.435838 234.791797 
L 452.447469 235.728095 
L 451.457105 234.713852 
L 451.701792 233.623114 
L 447.923586 232.493672 
L 446.098444 230.71843 
L 444.090054 230.7741 
L 443.677861 232.181967 
L 440.149996 231.34161 
L 437.624416 231.778142 
L 436.221707 231.764502 
L 432.348438 233.339455 
L 425.304018 231.224845 
L 422.360285 226.550726 
L 421.431361 227.472391 
L 419.194178 225.604608 
L 419.305441 227.8416 
L 409.567019 224.0577 
L 408.928021 223.356575 
L 411.175596 221.520428 
L 411.743068 220.084707 
L 409.384688 217.580677 
L 408.114639 217.708675 
L 408.755777 215.299211 
L 409.044174 213.796777 
L 408.459279 213.017745 
L 409.416783 211.910539 
L 412.138296 212.667182 
L 410.775171 209.478647 
L 413.134315 205.171711 
L 417.958975 204.83796 
L 419.939702 202.205932 
L 420.908057 202.228169 
L 420.095592 200.224937 
L 417.786272 198.555647 
L 417.675009 195.739912 
L 418.770981 192.724079 
L 417.369036 190.136525 
L 416.428496 190.603853 
L 415.276893 189.50769 
L 418.058928 186.987039 
L 418.559918 187.21522 
L 421.64273 184.939333 
L 424.747397 183.987827 
L 426.650791 184.555337 
L 426.021879 182.546489 
L 427.079184 179.819894 
L 426.917791 179.035245 
L 427.808049 179.129773 
L 429.104539 177.610757 
L 430.078396 178.578921 
L 431.439229 178.529021 
L 431.842558 178.587327 
L 441.073877 171.595483 
L 440.9403 170.187806 
L 438.564345 169.636916 
L 438.820189 160.28845 
L 438.247061 159.214524 
L 433.633924 158.875004 
L 432.003797 160.154835 
L 430.004119 158.255186 
L 429.691879 158.119775 
L 427.655368 158.47435 
L 426.388833 154.223084 
L 424.95357 154.200885 
L 423.601296 152.804213 
L 422.176884 152.921016 
L 420.986003 150.945638 
L 422.271336 149.816005 
L 421.620263 147.445589 
L 419.895533 146.549753 
L 417.291091 146.766701 
L 418.587733 142.954948 
L 417.235306 142.020063 
L 415.248924 141.730786 
L 415.927812 136.811866 
L 414.942951 131.725707 
L 413.902152 130.846683 
L 412.005025 131.035777 
L 411.58733 129.522339 
L 415.547409 126.661595 
L 415.620922 126.747717 
L 418.932374 127.727917 
L 419.382011 129.898273 
L 420.108125 130.169285 
L 419.044554 133.616874 
L 420.613394 134.593826 
L 421.176586 136.009832 
L 420.817885 139.426319 
L 422.066844 140.089351 
L 422.11086 141.069321 
L 424.21416 142.857592 
L 426.612124 148.41597 
L 426.554811 149.100284 
L 427.901125 150.2499 
L 427.795822 151.628309 
L 431.150373 152.113518 
L 431.758805 152.814262 
L 433.542987 152.518948 
L 436.38585 155.183531 
L 437.947354 154.814972 
L 440.179952 155.995079 
L 440.883599 155.60711 
L 442.26323 156.906809 
L 443.011046 156.853738 
L 443.396799 157.79592 
L 444.111145 157.371997 
L 444.530215 157.610647 
L 444.117717 158.0672 
L 445.945763 158.923147 
L 448.299099 158.715178 
L 448.436649 159.338816 
L 449.163374 158.842641 
L 452.6217 158.827702 
L 457.017966 159.562795 
L 457.720085 160.793642 
L 458.481045 160.950488 
L 458.177517 161.369979 
L 461.297315 163.133491 
L 462.273007 163.130205 
L 462.366235 161.694713 
L 463.89977 161.261161 
L 463.845514 160.731095 
L 466.548382 160.942541 
" style="fill:#9467bd;stroke:#ffffff;"/>
    <path clip-path="url(#pde5b93afb5)" d="M 538.320243 332.801339 
L 537.567995 334.162707 
L 532.630544 337.312193 
L 523.523325 336.861486 
L 510.719514 335.865468 
L 510.040626 333.595197 
L 508.677195 333.378249 
L 505.020491 328.408053 
L 505.944525 327.337948 
L 505.850379 325.632398 
L 502.767414 327.474161 
L 501.265057 327.641209 
L 498.844474 329.644441 
L 495.539135 330.273276 
L 494.231642 329.811335 
L 491.722109 324.714325 
L 494.047935 321.470082 
L 493.947676 319.260945 
L 492.790418 317.90336 
L 488.134487 317.003512 
L 487.020022 317.452423 
L 486.797496 316.573399 
L 485.91809 316.679199 
L 485.289178 316.005086 
L 484.927726 314.447786 
L 482.880058 312.505649 
L 481.900698 309.450767 
L 476.525225 306.646227 
L 477.29887 309.829146 
L 474.993676 311.659905 
L 473.8543 309.21697 
L 469.224656 310.74164 
L 467.110046 307.403061 
L 464.533878 307.620008 
L 463.081345 304.876793 
L 465.034562 302.517382 
L 464.973428 299.7295 
L 464.695424 297.052997 
L 466.592551 296.379726 
L 468.401187 296.591248 
L 469.964677 294.899529 
L 468.874055 294.092643 
L 466.281075 294.115071 
L 465.062378 292.773916 
L 463.298369 292.217409 
L 462.919952 289.474194 
L 461.184065 288.52265 
L 462.897944 287.843762 
L 463.810363 286.558315 
L 464.283536 285.233971 
L 463.799359 282.318282 
L 467.249431 277.872115 
L 467.065724 277.276751 
L 462.357065 274.942825 
L 461.74038 274.973048 
L 460.57166 275.423793 
L 459.681555 277.799787 
L 458.691039 278.089063 
L 457.683864 276.853898 
L 456.126028 276.698046 
L 454.918182 275.112088 
L 454.796373 271.413738 
L 456.109216 270.816348 
L 457.400204 271.857032 
L 458.566938 270.404117 
L 458.396069 268.434738 
L 455.129704 267.193918 
L 455.296598 264.339325 
L 452.492096 264.099948 
L 452.308696 266.075326 
L 450.995241 266.871209 
L 450.70608 269.814751 
L 447.999239 271.568558 
L 449.108813 270.070748 
L 449.376119 268.067554 
L 449.348303 267.355196 
L 448.057163 266.971391 
L 443.255122 271.511895 
L 441.90835 271.389475 
L 440.895673 273.030911 
L 440.055239 272.685965 
L 438.625478 270.176547 
L 441.463298 265.830525 
L 439.971945 265.952945 
L 439.732913 265.07373 
L 441.530239 264.394841 
L 442.615054 263.026023 
L 445.347418 263.582529 
L 445.55894 260.956079 
L 446.432539 259.642777 
L 446.899905 259.804246 
L 447.350459 258.69685 
L 445.709023 257.044181 
L 444.193522 257.593886 
L 444.49919 256.515529 
L 444.696346 255.925781 
L 443.978638 255.508315 
L 443.204993 257.144364 
L 441.741455 257.105506 
L 440.205781 255.347076 
L 440.406146 253.1379 
L 439.649312 252.203015 
L 439.46041 249.610035 
L 437.100807 247.996224 
L 437.69044 246.276881 
L 438.692114 246.382642 
L 438.692114 245.603572 
L 439.443445 245.759424 
L 440.934645 244.524029 
L 440.144647 243.127395 
L 439.526892 243.433292 
L 438.6698 242.476361 
L 439.204107 241.931088 
L 438.848004 241.496963 
L 439.576869 241.135205 
L 438.480897 241.341111 
L 438.175841 240.656835 
L 439.951006 240.679646 
L 440.323157 240.187865 
L 440.565857 239.818083 
L 443.043447 235.58745 
L 437.624416 231.778142 
L 440.149996 231.34161 
L 443.677861 232.181967 
L 444.090054 230.7741 
L 446.098444 230.71843 
L 447.923586 232.493672 
L 451.701792 233.623114 
L 451.457105 234.713852 
L 452.447469 235.728095 
L 454.435838 234.791797 
L 454.389682 237.00082 
L 455.992298 240.623288 
L 458.857933 244.668725 
L 463.643468 248.892213 
L 463.41544 250.82304 
L 461.651431 254.762715 
L 460.449545 251.496349 
L 462.246872 250.739592 
L 462.591665 249.41521 
L 457.5726 244.384912 
L 456.899214 242.181353 
L 454.345054 238.386412 
L 455.680517 241.469148 
L 456.570927 246.749864 
L 458.618596 250.422386 
L 460.249027 250.505909 
L 460.315969 252.742786 
L 465.980604 263.944211 
L 466.564735 266.681924 
L 476.480903 277.076462 
L 481.060417 282.997094 
L 484.482674 293.953602 
L 486.686233 295.678562 
L 487.704412 295.778745 
L 488.338673 298.221565 
L 489.240087 299.050689 
L 490.620177 299.089661 
L 491.988957 302.823393 
L 494.431854 304.025355 
L 494.977165 304.192326 
L 494.888216 304.999136 
L 491.037719 302.984786 
L 493.858727 305.344159 
L 492.517762 305.182766 
L 493.113203 305.956259 
L 494.543117 305.377553 
L 498.610944 306.829857 
L 495.383398 305.255133 
L 495.405711 304.353642 
L 498.560814 305.917286 
L 505.80025 306.045284 
L 509.033298 308.009582 
L 509.68437 309.111361 
L 514.024546 309.823567 
L 518.480571 316.477649 
L 520.501646 317.352394 
L 526.728405 316.311824 
L 527.334085 316.100799 
L 528.202946 317.168764 
L 528.236264 318.915999 
L 529.06554 320.457481 
L 528.586865 322.683239 
L 530.734792 323.668025 
L 531.6197 325.38198 
L 532.804774 325.304073 
L 532.943853 325.854963 
L 535.264177 326.628379 
L 536.317814 329.077121 
L 537.028186 329.85581 
L 536.75553 331.252635 
L 538.320243 332.801339 
" style="fill:#bcbd22;stroke:#ffffff;"/>
   </g>
   <g id="matplotlib.axis_1">
    <g id="xtick_1">
     <g id="line2d_1">
      <defs>
       <path d="M 0 0 
L 0 3.5 
" id="m1bc009eb2c" style="stroke:#000000;stroke-width:0.8;"/>
      </defs>
      <g>
       <use style="stroke:#000000;stroke-width:0.8;" x="109.41793" xlink:href="#m1bc009eb2c" y="407.590239"/>
      </g>
     </g>
     <g id="text_1">
      <!-- 115 -->
      <defs>
       <path d="M 10.59375 35.5 
L 73.1875 35.5 
L 73.1875 27.203125 
L 10.59375 27.203125 
z
" id="DejaVuSans-8722"/>
       <path d="M 12.40625 8.296875 
L 28.515625 8.296875 
L 28.515625 63.921875 
L 10.984375 60.40625 
L 10.984375 69.390625 
L 28.421875 72.90625 
L 38.28125 72.90625 
L 38.28125 8.296875 
L 54.390625 8.296875 
L 54.390625 0 
L 12.40625 0 
z
" id="DejaVuSans-49"/>
       <path d="M 10.796875 72.90625 
L 49.515625 72.90625 
L 49.515625 64.59375 
L 19.828125 64.59375 
L 19.828125 46.734375 
Q 21.96875 47.46875 24.109375 47.828125 
Q 26.265625 48.1875 28.421875 48.1875 
Q 40.625 48.1875 47.75 41.5 
Q 54.890625 34.8125 54.890625 23.390625 
Q 54.890625 11.625 47.5625 5.09375 
Q 40.234375 -1.421875 26.90625 -1.421875 
Q 22.3125 -1.421875 17.546875 -0.640625 
Q 12.796875 0.140625 7.71875 1.703125 
L 7.71875 11.625 
Q 12.109375 9.234375 16.796875 8.0625 
Q 21.484375 6.890625 26.703125 6.890625 
Q 35.15625 6.890625 40.078125 11.328125 
Q 45.015625 15.765625 45.015625 23.390625 
Q 45.015625 31 40.078125 35.4375 
Q 35.15625 39.890625 26.703125 39.890625 
Q 22.75 39.890625 18.8125 39.015625 
Q 14.890625 38.140625 10.796875 36.28125 
z
" id="DejaVuSans-53"/>
      </defs>
      <g transform="translate(95.684336 422.188677)scale(0.1 -0.1)">
       <use xlink:href="#DejaVuSans-8722"/>
       <use x="83.789062" xlink:href="#DejaVuSans-49"/>
       <use x="147.412109" xlink:href="#DejaVuSans-49"/>
       <use x="211.035156" xlink:href="#DejaVuSans-53"/>
      </g>
     </g>
    </g>
    <g id="xtick_2">
     <g id="line2d_2">
      <g>
       <use style="stroke:#000000;stroke-width:0.8;" x="209.579144" xlink:href="#m1bc009eb2c" y="407.590239"/>
      </g>
     </g>
     <g id="text_2">
      <!-- 110 -->
      <defs>
       <path d="M 31.78125 66.40625 
Q 24.171875 66.40625 20.328125 58.90625 
Q 16.5 51.421875 16.5 36.375 
Q 16.5 21.390625 20.328125 13.890625 
Q 24.171875 6.390625 31.78125 6.390625 
Q 39.453125 6.390625 43.28125 13.890625 
Q 47.125 21.390625 47.125 36.375 
Q 47.125 51.421875 43.28125 58.90625 
Q 39.453125 66.40625 31.78125 66.40625 
z
M 31.78125 74.21875 
Q 44.046875 74.21875 50.515625 64.515625 
Q 56.984375 54.828125 56.984375 36.375 
Q 56.984375 17.96875 50.515625 8.265625 
Q 44.046875 -1.421875 31.78125 -1.421875 
Q 19.53125 -1.421875 13.0625 8.265625 
Q 6.59375 17.96875 6.59375 36.375 
Q 6.59375 54.828125 13.0625 64.515625 
Q 19.53125 74.21875 31.78125 74.21875 
z
" id="DejaVuSans-48"/>
      </defs>
      <g transform="translate(195.84555 422.188677)scale(0.1 -0.1)">
       <use xlink:href="#DejaVuSans-8722"/>
       <use x="83.789062" xlink:href="#DejaVuSans-49"/>
       <use x="147.412109" xlink:href="#DejaVuSans-49"/>
       <use x="211.035156" xlink:href="#DejaVuSans-48"/>
      </g>
     </g>
    </g>
    <g id="xtick_3">
     <g id="line2d_3">
      <g>
       <use style="stroke:#000000;stroke-width:0.8;" x="309.740358" xlink:href="#m1bc009eb2c" y="407.590239"/>
      </g>
     </g>
     <g id="text_3">
      <!-- 105 -->
      <g transform="translate(296.006764 422.188677)scale(0.1 -0.1)">
       <use xlink:href="#DejaVuSans-8722"/>
       <use x="83.789062" xlink:href="#DejaVuSans-49"/>
       <use x="147.412109" xlink:href="#DejaVuSans-48"/>
       <use x="211.035156" xlink:href="#DejaVuSans-53"/>
      </g>
     </g>
    </g>
    <g id="xtick_4">
     <g id="line2d_4">
      <g>
       <use style="stroke:#000000;stroke-width:0.8;" x="409.901572" xlink:href="#m1bc009eb2c" y="407.590239"/>
      </g>
     </g>
     <g id="text_4">
      <!-- 100 -->
      <g transform="translate(396.167979 422.188677)scale(0.1 -0.1)">
       <use xlink:href="#DejaVuSans-8722"/>
       <use x="83.789062" xlink:href="#DejaVuSans-49"/>
       <use x="147.412109" xlink:href="#DejaVuSans-48"/>
       <use x="211.035156" xlink:href="#DejaVuSans-48"/>
      </g>
     </g>
    </g>
    <g id="xtick_5">
     <g id="line2d_5">
      <g>
       <use style="stroke:#000000;stroke-width:0.8;" x="510.062787" xlink:href="#m1bc009eb2c" y="407.590239"/>
      </g>
     </g>
     <g id="text_5">
      <!-- 95 -->
      <defs>
       <path d="M 10.984375 1.515625 
L 10.984375 10.5 
Q 14.703125 8.734375 18.5 7.8125 
Q 22.3125 6.890625 25.984375 6.890625 
Q 35.75 6.890625 40.890625 13.453125 
Q 46.046875 20.015625 46.78125 33.40625 
Q 43.953125 29.203125 39.59375 26.953125 
Q 35.25 24.703125 29.984375 24.703125 
Q 19.046875 24.703125 12.671875 31.3125 
Q 6.296875 37.9375 6.296875 49.421875 
Q 6.296875 60.640625 12.9375 67.421875 
Q 19.578125 74.21875 30.609375 74.21875 
Q 43.265625 74.21875 49.921875 64.515625 
Q 56.59375 54.828125 56.59375 36.375 
Q 56.59375 19.140625 48.40625 8.859375 
Q 40.234375 -1.421875 26.421875 -1.421875 
Q 22.703125 -1.421875 18.890625 -0.6875 
Q 15.09375 0.046875 10.984375 1.515625 
z
M 30.609375 32.421875 
Q 37.25 32.421875 41.125 36.953125 
Q 45.015625 41.5 45.015625 49.421875 
Q 45.015625 57.28125 41.125 61.84375 
Q 37.25 66.40625 30.609375 66.40625 
Q 23.96875 66.40625 20.09375 61.84375 
Q 16.21875 57.28125 16.21875 49.421875 
Q 16.21875 41.5 20.09375 36.953125 
Q 23.96875 32.421875 30.609375 32.421875 
z
" id="DejaVuSans-57"/>
      </defs>
      <g transform="translate(499.510443 422.188677)scale(0.1 -0.1)">
       <use xlink:href="#DejaVuSans-8722"/>
       <use x="83.789062" xlink:href="#DejaVuSans-57"/>
       <use x="147.412109" xlink:href="#DejaVuSans-53"/>
      </g>
     </g>
    </g>
    <g id="xtick_6">
     <g id="line2d_6">
      <g>
       <use style="stroke:#000000;stroke-width:0.8;" x="610.224001" xlink:href="#m1bc009eb2c" y="407.590239"/>
      </g>
     </g>
     <g id="text_6">
      <!-- 90 -->
      <g transform="translate(599.671657 422.188677)scale(0.1 -0.1)">
       <use xlink:href="#DejaVuSans-8722"/>
       <use x="83.789062" xlink:href="#DejaVuSans-57"/>
       <use x="147.412109" xlink:href="#DejaVuSans-48"/>
      </g>
     </g>
    </g>
   </g>
   <g id="matplotlib.axis_2">
    <g id="ytick_1">
     <g id="line2d_7">
      <defs>
       <path d="M 0 0 
L -3.5 0 
" id="m7397c8cfb6" style="stroke:#000000;stroke-width:0.8;"/>
      </defs>
      <g>
       <use style="stroke:#000000;stroke-width:0.8;" x="36.465625" xlink:href="#m7397c8cfb6" y="380.387124"/>
      </g>
     </g>
     <g id="text_7">
      <!-- 15.0 -->
      <defs>
       <path d="M 10.6875 12.40625 
L 21 12.40625 
L 21 0 
L 10.6875 0 
z
" id="DejaVuSans-46"/>
      </defs>
      <g transform="translate(7.2 384.186343)scale(0.1 -0.1)">
       <use xlink:href="#DejaVuSans-49"/>
       <use x="63.623047" xlink:href="#DejaVuSans-53"/>
       <use x="127.246094" xlink:href="#DejaVuSans-46"/>
       <use x="159.033203" xlink:href="#DejaVuSans-48"/>
      </g>
     </g>
    </g>
    <g id="ytick_2">
     <g id="line2d_8">
      <g>
       <use style="stroke:#000000;stroke-width:0.8;" x="36.465625" xlink:href="#m7397c8cfb6" y="330.306517"/>
      </g>
     </g>
     <g id="text_8">
      <!-- 17.5 -->
      <defs>
       <path d="M 8.203125 72.90625 
L 55.078125 72.90625 
L 55.078125 68.703125 
L 28.609375 0 
L 18.3125 0 
L 43.21875 64.59375 
L 8.203125 64.59375 
z
" id="DejaVuSans-55"/>
      </defs>
      <g transform="translate(7.2 334.105736)scale(0.1 -0.1)">
       <use xlink:href="#DejaVuSans-49"/>
       <use x="63.623047" xlink:href="#DejaVuSans-55"/>
       <use x="127.246094" xlink:href="#DejaVuSans-46"/>
       <use x="159.033203" xlink:href="#DejaVuSans-53"/>
      </g>
     </g>
    </g>
    <g id="ytick_3">
     <g id="line2d_9">
      <g>
       <use style="stroke:#000000;stroke-width:0.8;" x="36.465625" xlink:href="#m7397c8cfb6" y="280.22591"/>
      </g>
     </g>
     <g id="text_9">
      <!-- 20.0 -->
      <defs>
       <path d="M 19.1875 8.296875 
L 53.609375 8.296875 
L 53.609375 0 
L 7.328125 0 
L 7.328125 8.296875 
Q 12.9375 14.109375 22.625 23.890625 
Q 32.328125 33.6875 34.8125 36.53125 
Q 39.546875 41.84375 41.421875 45.53125 
Q 43.3125 49.21875 43.3125 52.78125 
Q 43.3125 58.59375 39.234375 62.25 
Q 35.15625 65.921875 28.609375 65.921875 
Q 23.96875 65.921875 18.8125 64.3125 
Q 13.671875 62.703125 7.8125 59.421875 
L 7.8125 69.390625 
Q 13.765625 71.78125 18.9375 73 
Q 24.125 74.21875 28.421875 74.21875 
Q 39.75 74.21875 46.484375 68.546875 
Q 53.21875 62.890625 53.21875 53.421875 
Q 53.21875 48.921875 51.53125 44.890625 
Q 49.859375 40.875 45.40625 35.40625 
Q 44.1875 33.984375 37.640625 27.21875 
Q 31.109375 20.453125 19.1875 8.296875 
z
" id="DejaVuSans-50"/>
      </defs>
      <g transform="translate(7.2 284.025129)scale(0.1 -0.1)">
       <use xlink:href="#DejaVuSans-50"/>
       <use x="63.623047" xlink:href="#DejaVuSans-48"/>
       <use x="127.246094" xlink:href="#DejaVuSans-46"/>
       <use x="159.033203" xlink:href="#DejaVuSans-48"/>
      </g>
     </g>
    </g>
    <g id="ytick_4">
     <g id="line2d_10">
      <g>
       <use style="stroke:#000000;stroke-width:0.8;" x="36.465625" xlink:href="#m7397c8cfb6" y="230.145303"/>
      </g>
     </g>
     <g id="text_10">
      <!-- 22.5 -->
      <g transform="translate(7.2 233.944522)scale(0.1 -0.1)">
       <use xlink:href="#DejaVuSans-50"/>
       <use x="63.623047" xlink:href="#DejaVuSans-50"/>
       <use x="127.246094" xlink:href="#DejaVuSans-46"/>
       <use x="159.033203" xlink:href="#DejaVuSans-53"/>
      </g>
     </g>
    </g>
    <g id="ytick_5">
     <g id="line2d_11">
      <g>
       <use style="stroke:#000000;stroke-width:0.8;" x="36.465625" xlink:href="#m7397c8cfb6" y="180.064696"/>
      </g>
     </g>
     <g id="text_11">
      <!-- 25.0 -->
      <g transform="translate(7.2 183.863915)scale(0.1 -0.1)">
       <use xlink:href="#DejaVuSans-50"/>
       <use x="63.623047" xlink:href="#DejaVuSans-53"/>
       <use x="127.246094" xlink:href="#DejaVuSans-46"/>
       <use x="159.033203" xlink:href="#DejaVuSans-48"/>
      </g>
     </g>
    </g>
    <g id="ytick_6">
     <g id="line2d_12">
      <g>
       <use style="stroke:#000000;stroke-width:0.8;" x="36.465625" xlink:href="#m7397c8cfb6" y="129.984089"/>
      </g>
     </g>
     <g id="text_12">
      <!-- 27.5 -->
      <g transform="translate(7.2 133.783308)scale(0.1 -0.1)">
       <use xlink:href="#DejaVuSans-50"/>
       <use x="63.623047" xlink:href="#DejaVuSans-55"/>
       <use x="127.246094" xlink:href="#DejaVuSans-46"/>
       <use x="159.033203" xlink:href="#DejaVuSans-53"/>
      </g>
     </g>
    </g>
    <g id="ytick_7">
     <g id="line2d_13">
      <g>
       <use style="stroke:#000000;stroke-width:0.8;" x="36.465625" xlink:href="#m7397c8cfb6" y="79.903482"/>
      </g>
     </g>
     <g id="text_13">
      <!-- 30.0 -->
      <defs>
       <path d="M 40.578125 39.3125 
Q 47.65625 37.796875 51.625 33 
Q 55.609375 28.21875 55.609375 21.1875 
Q 55.609375 10.40625 48.1875 4.484375 
Q 40.765625 -1.421875 27.09375 -1.421875 
Q 22.515625 -1.421875 17.65625 -0.515625 
Q 12.796875 0.390625 7.625 2.203125 
L 7.625 11.71875 
Q 11.71875 9.328125 16.59375 8.109375 
Q 21.484375 6.890625 26.8125 6.890625 
Q 36.078125 6.890625 40.9375 10.546875 
Q 45.796875 14.203125 45.796875 21.1875 
Q 45.796875 27.640625 41.28125 31.265625 
Q 36.765625 34.90625 28.71875 34.90625 
L 20.21875 34.90625 
L 20.21875 43.015625 
L 29.109375 43.015625 
Q 36.375 43.015625 40.234375 45.921875 
Q 44.09375 48.828125 44.09375 54.296875 
Q 44.09375 59.90625 40.109375 62.90625 
Q 36.140625 65.921875 28.71875 65.921875 
Q 24.65625 65.921875 20.015625 65.03125 
Q 15.375 64.15625 9.8125 62.3125 
L 9.8125 71.09375 
Q 15.4375 72.65625 20.34375 73.4375 
Q 25.25 74.21875 29.59375 74.21875 
Q 40.828125 74.21875 47.359375 69.109375 
Q 53.90625 64.015625 53.90625 55.328125 
Q 53.90625 49.265625 50.4375 45.09375 
Q 46.96875 40.921875 40.578125 39.3125 
z
" id="DejaVuSans-51"/>
      </defs>
      <g transform="translate(7.2 83.7027)scale(0.1 -0.1)">
       <use xlink:href="#DejaVuSans-51"/>
       <use x="63.623047" xlink:href="#DejaVuSans-48"/>
       <use x="127.246094" xlink:href="#DejaVuSans-46"/>
       <use x="159.033203" xlink:href="#DejaVuSans-48"/>
      </g>
     </g>
    </g>
    <g id="ytick_8">
     <g id="line2d_14">
      <g>
       <use style="stroke:#000000;stroke-width:0.8;" x="36.465625" xlink:href="#m7397c8cfb6" y="29.822875"/>
      </g>
     </g>
     <g id="text_14">
      <!-- 32.5 -->
      <g transform="translate(7.2 33.622093)scale(0.1 -0.1)">
       <use xlink:href="#DejaVuSans-51"/>
       <use x="63.623047" xlink:href="#DejaVuSans-50"/>
       <use x="127.246094" xlink:href="#DejaVuSans-46"/>
       <use x="159.033203" xlink:href="#DejaVuSans-53"/>
      </g>
     </g>
    </g>
   </g>
   <g id="patch_3">
    <path d="M 36.465625 407.590239 
L 36.465625 7.2 
" style="fill:none;stroke:#000000;stroke-linecap:square;stroke-linejoin:miter;stroke-width:0.8;"/>
   </g>
   <g id="patch_4">
    <path d="M 706.065625 407.590239 
L 706.065625 7.2 
" style="fill:none;stroke:#000000;stroke-linecap:square;stroke-linejoin:miter;stroke-width:0.8;"/>
   </g>
   <g id="patch_5">
    <path d="M 36.465625 407.590239 
L 706.065625 407.590239 
" style="fill:none;stroke:#000000;stroke-linecap:square;stroke-linejoin:miter;stroke-width:0.8;"/>
   </g>
   <g id="patch_6">
    <path d="M 36.465625 7.2 
L 706.065625 7.2 
" style="fill:none;stroke:#000000;stroke-linecap:square;stroke-linejoin:miter;stroke-width:0.8;"/>
   </g>
  </g>
 </g>
 <defs>
  <clipPath id="pde5b93afb5">
   <rect height="400.390239" width="669.6" x="36.465625" y="7.2"/>
  </clipPath>
 </defs>
</svg>
